<svg width="187" height="167" viewBox="0 0 187 167" fill="none" xmlns="http://www.w3.org/2000/svg">
<path d="M80.0248 26.8951C80.4844 24.2704 83.8823 23.5029 85.4255 25.6751L96.9388 41.8814C98.0597 43.4593 100.359 43.5785 101.637 42.125L116.002 25.7893C117.82 23.7212 121.231 24.9909 121.254 27.7447L121.409 45.9176C121.427 48.0256 123.556 49.4581 125.516 48.6805L145.742 40.6539C148.443 39.5819 150.938 42.5925 149.383 45.0475L139.587 60.5139C138.373 62.4312 139.645 64.9505 141.908 65.1115L161.878 66.5326C164.841 66.7434 165.728 70.6712 163.143 72.1353L145.724 82.0024C143.749 83.1209 143.684 85.9424 145.604 87.1515L161.097 96.9052C163.556 98.4535 162.598 102.244 159.698 102.437L137.986 103.884C135.883 104.025 134.576 106.233 135.466 108.144L143.138 124.619C144.301 127.116 141.767 129.728 139.236 128.643L119.245 120.068C117.466 119.305 115.441 120.401 115.107 122.307L111.678 141.889C111.219 144.514 107.821 145.281 106.277 143.109L94.7642 126.903C93.6433 125.325 91.3437 125.206 90.0656 126.659L75.7014 142.995C73.8829 145.063 70.4721 143.793 70.4486 141.04L70.2937 122.867C70.2758 120.759 68.1466 119.326 66.1873 120.104L45.9614 128.13C43.2603 129.202 40.7654 126.192 42.3203 123.737L52.116 108.27C53.3304 106.353 52.0583 103.834 49.7945 103.673L29.8252 102.252C26.862 102.041 25.9747 98.1131 28.5595 96.649L45.9789 86.7819C47.9536 85.6633 48.0192 82.8419 46.0987 81.6328L30.6057 71.879C28.1465 70.3308 29.105 66.5402 32.0046 66.3469L53.7167 64.8998C55.8201 64.7596 57.1267 62.5509 56.2368 60.64L48.5648 44.1652C47.4022 41.6687 49.936 39.0561 52.467 40.1417L72.4584 48.7165C74.2372 49.4794 76.2622 48.3833 76.5961 46.4768L80.0248 26.8951Z" fill="#433F41"/>
<path d="M75.1118 21.8728C75.4181 20.123 77.6834 19.6113 78.7122 21.0594L92.3444 40.2484C93.0917 41.3003 94.6247 41.3798 95.4768 40.4108L112.404 21.1603C113.616 19.7816 115.89 20.6281 115.906 22.4639L116.095 44.7138C116.107 46.1191 117.527 47.0741 118.833 46.5557L143.276 36.8557C145.076 36.1411 146.74 38.1481 145.703 39.7848L133.365 59.2646C132.556 60.5428 133.404 62.2223 134.913 62.3297L159.856 64.1046C161.831 64.2451 162.422 66.8636 160.699 67.8397L138.942 80.1641C137.625 80.9098 137.582 82.7907 138.862 83.5968L158.375 95.8816C160.015 96.9137 159.376 99.4408 157.443 99.5697L131.204 101.318C129.802 101.412 128.931 102.884 129.524 104.158L138.917 124.329C139.692 125.993 138.003 127.735 136.316 127.011L112.757 116.907C111.571 116.398 110.221 117.129 109.999 118.4L105.939 141.585C105.632 143.335 103.367 143.847 102.338 142.399L88.7062 123.21C87.9589 122.158 86.4259 122.078 85.5738 123.047L68.6466 142.298C67.4343 143.677 65.1604 142.83 65.1447 140.994L64.9551 118.744C64.9432 117.339 63.5237 116.384 62.2175 116.902L37.7751 126.602C35.9743 127.317 34.3111 125.31 35.3477 123.673L47.6853 104.194C48.4948 102.915 47.6468 101.236 46.1376 101.128L21.1951 99.3535C19.2197 99.213 18.6281 96.5945 20.3513 95.6184L42.1088 83.294C43.4253 82.5483 43.469 80.6674 42.1887 79.8613L22.6755 67.5765C21.036 66.5444 21.675 64.0173 23.6081 63.8885L49.8466 62.1397C51.2489 62.0462 52.12 60.5738 51.5267 59.2998L42.1335 39.129C41.3585 37.4647 43.0477 35.7229 44.735 36.4467L68.2935 46.5515C69.4794 47.0601 70.8294 46.3294 71.0519 45.0584L75.1118 21.8728Z" fill="#2D73AE"/>
<path d="M52.7241 106.393L51.4003 103.326C51.0674 102.555 50.9641 101.895 51.0905 101.347C51.2168 100.798 51.5246 100.317 52.0137 99.9026L52.0003 99.8212L49.7264 99.9533L49.5203 99.4759C49.2614 98.876 49.2011 98.2486 49.3394 97.5934C49.4777 96.9383 49.8262 96.3158 50.3849 95.7261C50.9506 95.1188 51.7292 94.6012 52.7207 94.1731C53.6511 93.7715 54.5163 93.5722 55.3164 93.5754C56.1112 93.5663 56.8164 93.7701 57.432 94.1869C58.0546 94.5862 58.5535 95.2204 58.9287 96.0896L61.7031 102.516L58.9488 103.705L56.2458 97.4439C55.9815 96.8318 55.6181 96.4441 55.1555 96.2807C54.7051 96.1121 54.1861 96.1546 53.5985 96.4083C53.0354 96.6514 52.6659 96.9561 52.4901 97.3225C52.3089 97.6766 52.2801 98.0303 52.4036 98.3837L54.3628 98.431L54.6761 99.7117C54.2459 99.9265 53.9841 100.228 53.8906 100.617C53.7971 101.006 53.8587 101.452 54.0754 101.953L55.4784 105.203L52.7241 106.393ZM54.9056 92.3368C54.2078 92.638 53.5821 92.7193 53.0285 92.5807C52.4749 92.4421 52.0739 92.0851 51.8256 91.5098C51.5772 90.9345 51.5924 90.3978 51.8712 89.8999C52.15 89.4019 52.6383 89.0023 53.336 88.7011C54.0338 88.3999 54.6656 88.3159 55.2314 88.4492C55.785 88.5878 56.186 88.9448 56.4344 89.5201C56.6828 90.0955 56.6676 90.6321 56.3888 91.1301C56.0977 91.6333 55.6033 92.0355 54.9056 92.3368ZM54.4458 91.2718C54.7151 91.1555 54.8942 90.9983 54.9829 90.8003C55.0717 90.6022 55.0659 90.3869 54.9655 90.1543C54.865 89.9217 54.7123 89.7698 54.5073 89.6986C54.3023 89.6273 54.0651 89.6498 53.7958 89.7661C53.5387 89.8771 53.3658 90.0316 53.277 90.2297C53.1883 90.4277 53.1941 90.6431 53.2945 90.8756C53.3949 91.1082 53.5476 91.2601 53.7527 91.3314C53.9577 91.4026 54.1887 91.3827 54.4458 91.2718ZM67.2122 100.138L64.3426 93.4909C64.1207 92.9768 63.8371 92.6563 63.4918 92.5294C63.1589 92.3972 62.723 92.4474 62.1844 92.6799C61.7805 92.8543 61.4309 93.0706 61.1357 93.3287C60.8527 93.5816 60.5987 93.851 60.3736 94.137L59.4224 91.9335C59.6388 91.6948 59.9655 91.4086 60.4023 91.0748C60.8391 90.741 61.388 90.4314 62.0491 90.1461C62.7223 89.8554 63.3583 89.697 63.957 89.6709C64.5679 89.6396 65.1207 89.793 65.6153 90.1314C66.1169 90.4522 66.5394 91.0104 66.8829 91.8061L69.9665 98.949L67.2122 100.138ZM72.8323 97.7118L68.4883 87.6494L71.2059 86.4762L72.8309 90.2404L72.9043 90.2087L74.4009 85.0969L77.4306 83.789L77.4702 83.8808L74.226 93.4722L75.5498 96.5386L72.8323 97.7118ZM78.9835 95.0563L77.5488 91.7327C77.2687 91.084 76.8781 90.7007 76.3771 90.583C75.883 90.4477 75.281 90.5333 74.571 90.8399L75.3624 88.2326C76.0969 87.9156 76.7724 87.7982 77.3889 87.8806C78.0054 87.963 78.5444 88.2023 79.0059 88.5985C79.4743 88.9772 79.8459 89.4848 80.1207 90.1214L81.7378 93.8672L78.9835 95.0563ZM87.7401 91.4939C86.9934 91.8162 86.3022 91.9476 85.6665 91.888C85.0378 91.8109 84.4646 91.5428 83.9469 91.0837C83.4415 90.6193 83.0091 89.9709 82.6497 89.1385L79.8832 82.7302L82.6375 81.5412L85.1979 87.4721C85.4886 88.1454 85.8346 88.5769 86.236 88.7667C86.6375 88.9564 87.0952 88.9403 87.6094 88.7184C88.2582 88.4383 88.6544 87.9768 88.798 87.3339C88.9363 86.6787 88.7809 85.8309 88.3317 84.7904L86.2548 79.9795L89.0091 78.7905L93.3531 88.8529L91.2598 89.7566L90.3002 88.341L90.1349 88.4123C90.1382 88.9918 89.9541 89.5578 89.5827 90.1103C89.2234 90.6575 88.6093 91.1187 87.7401 91.4939ZM99.9322 86.2305C98.9407 86.6586 98.0586 86.7852 97.2861 86.6104C96.5083 86.4234 95.827 86.0059 95.2423 85.3579C94.6523 84.6977 94.1432 83.8718 93.7152 82.8802C93.2554 81.8152 92.9912 80.8836 92.9226 80.0855C92.8609 79.2698 92.9659 78.571 93.2374 77.989C93.5037 77.3948 93.9024 76.8886 94.4336 76.4705C94.9717 76.0349 95.6018 75.6612 96.3241 75.3494C97.4258 74.8738 98.3732 74.6464 99.1664 74.667C99.9595 74.6877 100.625 74.9161 101.161 75.3524C101.711 75.7834 102.149 76.3784 102.477 77.1373L105.306 83.6926L102.552 84.8816L99.8174 78.5467C99.569 77.9714 99.2406 77.5976 98.8323 77.4253C98.4308 77.2356 97.9118 77.2781 97.2753 77.5529C96.8468 77.7378 96.507 77.9935 96.2557 78.3198C96.0115 78.6286 95.8953 79.0491 95.9072 79.5813C95.9313 80.1082 96.1257 80.794 96.4904 81.6386C96.7387 82.2139 97.0131 82.6982 97.3136 83.0913C97.614 83.4844 97.9394 83.7506 98.29 83.8897C98.6527 84.0236 99.0483 83.998 99.4768 83.813C99.6114 83.7549 99.7373 83.6933 99.8545 83.6282C99.9785 83.5456 100.084 83.4709 100.172 83.4041L101.317 85.3497C101.158 85.52 100.945 85.6842 100.68 85.8425C100.426 85.9955 100.177 86.1248 99.9322 86.2305ZM107.919 82.5647L106.595 79.4982C106.262 78.727 106.159 78.0672 106.286 77.5189C106.412 76.9706 106.72 76.4892 107.209 76.0747L107.195 75.9934L104.922 76.1254L104.715 75.648C104.456 75.0482 104.396 74.4207 104.534 73.7655C104.673 73.1104 105.021 72.488 105.58 71.8982C106.146 71.291 106.924 70.7733 107.916 70.3453C108.846 69.9436 109.711 69.7444 110.511 69.7475C111.306 69.7384 112.012 69.9423 112.627 70.3591C113.25 70.7583 113.749 71.3926 114.124 72.2617L116.898 78.6884L114.144 79.8774L111.441 73.616C111.177 73.0039 110.813 72.6162 110.351 72.4529C109.9 72.2842 109.381 72.3267 108.794 72.5804C108.23 72.8235 107.861 73.1282 107.685 73.4946C107.504 73.8487 107.475 74.2025 107.599 74.5558L109.558 74.6031L109.871 75.8839C109.441 76.0986 109.179 76.4004 109.086 76.7893C108.992 77.1782 109.054 77.6237 109.27 78.1255L110.674 81.3756L107.919 82.5647ZM122.27 76.3696L119.4 69.7225C119.178 69.2084 118.894 68.8879 118.549 68.761C118.216 68.6288 117.78 68.679 117.242 68.9115C116.838 69.0859 116.488 69.3022 116.193 69.5603C115.91 69.8132 115.656 70.0826 115.431 70.3685L114.48 68.1651C114.696 67.9264 115.023 67.6402 115.46 67.3064C115.896 66.9726 116.445 66.663 117.106 66.3776C117.78 66.087 118.416 65.9286 119.014 65.9025C119.625 65.8711 120.178 66.0246 120.673 66.363C121.174 66.6838 121.597 67.242 121.94 68.0377L125.024 75.1805L122.27 76.3696ZM131.279 72.7632C130.557 73.075 129.795 73.3098 128.991 73.4678C128.2 73.6204 127.46 73.6714 126.77 73.6207L126.598 71.1027C126.901 71.1317 127.255 71.1456 127.662 71.1445C128.068 71.1435 128.494 71.1047 128.94 71.0282C129.386 70.9518 129.818 70.8237 130.234 70.644C130.724 70.4326 131.062 70.2068 131.248 69.9664C131.442 69.7085 131.476 69.4327 131.349 69.1389C131.254 68.9186 131.091 68.7781 130.862 68.7174C130.639 68.6392 130.342 68.6076 129.971 68.6226C129.595 68.6253 129.155 68.6484 128.65 68.6917C127.901 68.7392 127.236 68.7287 126.654 68.6602C126.073 68.5917 125.569 68.4171 125.143 68.1364C124.729 67.8503 124.395 67.4135 124.142 66.8259C123.851 66.1527 123.785 65.5278 123.942 64.9514C124.1 64.375 124.446 63.848 124.981 63.3704C125.51 62.8805 126.191 62.4559 127.023 62.0965C127.709 61.8006 128.351 61.5888 128.949 61.4612C129.548 61.3335 130.037 61.2894 130.417 61.3286L131.352 63.4953C131.102 63.4872 130.784 63.5082 130.399 63.5583C130.026 63.603 129.631 63.6793 129.213 63.7872C128.801 63.8776 128.418 63.9994 128.063 64.1527C127.561 64.3694 127.211 64.6005 127.012 64.8461C126.813 65.0918 126.767 65.337 126.872 65.5818C126.957 65.7777 127.114 65.906 127.343 65.9666C127.585 66.022 127.904 66.0369 128.299 66.0114C128.69 65.9736 129.161 65.9373 129.712 65.9026C130.444 65.8481 131.088 65.8604 131.645 65.9395C132.202 66.0186 132.675 66.2064 133.064 66.503C133.466 66.7943 133.791 67.2276 134.04 67.803C134.277 68.3538 134.373 68.9296 134.328 69.5302C134.289 70.1133 134.036 70.6874 133.568 71.2523C133.095 71.8051 132.332 72.3087 131.279 72.7632Z" fill="white"/>
</svg>
