<svg width="351" height="241" viewBox="0 0 351 241" fill="none" xmlns="http://www.w3.org/2000/svg">
<path d="M93.3738 189.61C91.5038 223.577 225.746 221.2 266.017 223.417C306.288 225.634 340.451 199.896 342.321 165.929C344.191 131.962 313.061 102.629 272.79 100.412C232.519 98.1946 95.2439 155.643 93.3738 189.61Z" fill="white"/>
<path d="M45.7684 126.073C43.8133 161.585 67.6781 191.774 99.0719 193.503C130.466 195.231 281.16 216.888 283.115 181.376C285.07 145.864 137.546 66.6308 106.152 64.9024C74.7583 63.174 47.7236 90.5611 45.7684 126.073Z" fill="white"/>
<ellipse cx="86.8756" cy="88.4918" rx="86.8756" ry="88.4918" transform="matrix(-0.998488 -0.0549724 -0.0549724 0.998488 289.854 15.2861)" fill="white"/>
<path d="M28.32 193.058C26.1125 233.155 184.581 230.349 232.119 232.966C279.657 235.583 319.984 205.2 322.192 165.103C324.4 125.007 287.652 90.3802 240.113 87.763C192.575 85.1457 30.5276 152.962 28.32 193.058Z" fill="#FFD700"/>
<path d="M4.77362 135.008C2.46565 176.929 30.6371 212.566 67.6963 214.607C104.755 216.647 282.644 242.212 284.952 200.292C287.26 158.371 113.113 64.8392 76.0542 62.7989C38.9949 60.7586 7.08158 93.0879 4.77362 135.008Z" fill="#FFD700"/>
<ellipse cx="102.553" cy="104.461" rx="102.553" ry="104.461" transform="matrix(-0.998488 -0.0549724 -0.0549724 0.998488 286.732 20.3525)" fill="#FFD700"/>
</svg>
