<svg width="739" height="201" viewBox="0 0 739 201" fill="none" xmlns="http://www.w3.org/2000/svg">
<path d="M363.226 42.9248L367.242 77.3323L335.436 63.6061L363.226 42.9248Z" fill="#A5CE89"/>
<path d="M244.498 18.673L274.181 36.5307L243.874 53.3084L244.498 18.673Z" fill="#FFD700"/>
<path d="M452.91 29.3457L485.829 40.1321L460.028 63.2475L452.91 29.3457Z" fill="#FF6961"/>
<path d="M562.356 94.1715L579.418 124.319L544.779 124.022L562.356 94.1715Z" fill="#FFD700"/>
<path d="M643.226 7.92482L647.242 42.3323L615.436 28.6061L643.226 7.92482Z" fill="#87CEFA"/>
<path d="M720.226 68.9248L724.242 103.332L692.436 89.6061L720.226 68.9248Z" fill="#FF6961"/>
<path d="M154 168C154 168 199 203 241.5 195.5C284 188 290.5 179.5 334.5 172C378.5 164.5 471.5 199.5 471.5 199.5" stroke="black" stroke-width="2" stroke-linecap="round"/>
<ellipse cx="89.2818" cy="94.6327" rx="60" ry="74.6284" transform="rotate(-30.0101 89.2818 94.6327)" fill="#FF6961"/>
<path d="M135.896 146.346L168.815 157.132L143.014 180.248L135.896 146.346Z" fill="#FF6961"/>
</svg>
