<svg width="1442" height="495" viewBox="0 0 1442 495" fill="none" xmlns="http://www.w3.org/2000/svg">
<path d="M1086 27L1091 215.031" stroke="white"/>
<path d="M1160 58.9995L1163 294.031" stroke="white"/>
<path d="M1414.5 46.4995V484.031" stroke="white"/>
<path d="M1327.5 35.9995L1330.5 178.5V347" stroke="white"/>
<path d="M1243 47.4995L1247 254.031" stroke="white"/>
<path d="M683 38L682 141.464" stroke="white"/>
<path d="M750 24V183" stroke="white"/>
<path d="M838 56L839.5 216.325" stroke="white"/>
<path d="M921 90V115.5V141" stroke="white"/>
<path d="M1006.76 45.7163L1008 221.031" stroke="white"/>
<path d="M267 52.9995V163" stroke="white"/>
<path d="M339 50L342 305.031" stroke="white"/>
<path d="M423 74.5L427 221.031" stroke="white"/>
<path d="M512 74L512.5 118.515L513 163.031" stroke="white"/>
<path d="M593.953 56L593.953 261.031" stroke="white"/>
<path d="M21 7L24.9685 201.031" stroke="white"/>
<path d="M109.024 -0.000230389L109.025 133.53L112.049 318.03" stroke="white"/>
<path d="M190.084 37.0141L191.734 239.024" stroke="white"/>
<g opacity="0.75">
<path d="M1185.17 106.03L1155.02 88.9674L1155.32 123.607L1185.17 106.03Z" fill="#FFD700"/>
<path d="M1433.65 130.393L1399.24 126.378L1412.97 158.183L1433.65 130.393Z" fill="#FF6961"/>
<path d="M1265.65 243.394L1231.24 239.378L1244.97 271.184L1265.65 243.394Z" fill="#87CEFA"/>
<path d="M939.651 137.393L905.243 133.378L918.97 165.183L939.651 137.393Z" fill="#87CEFA"/>
<path d="M126.651 307.394L92.2434 303.378L105.97 335.184L126.651 307.394Z" fill="#2D73AE"/>
<path d="M774.17 180.03L744.022 162.967L744.319 197.607L774.17 180.03Z" fill="#FFD700"/>
<path d="M287.17 172.03L257.022 154.967L257.319 189.607L287.17 172.03Z" fill="#87CEFA"/>
<path d="M443.138 228.618L432.351 195.699L409.236 221.5L443.138 228.618Z" fill="#FF6961"/>
<path d="M1020.14 236.618L1009.35 203.699L986.236 229.5L1020.14 236.618Z" fill="#FF6961"/>
<path d="M1433.65 460.394L1399.24 456.378L1412.97 488.184L1433.65 460.394Z" fill="#2D73AE"/>
<path d="M615.651 243.393L581.243 239.378L594.97 271.183L615.651 243.393Z" fill="#2D73AE"/>
<path d="M44.682 207.902L26.8243 178.218L10.0466 208.525L44.682 207.902Z" fill="#FFD700"/>
</g>
</svg>
