<svg width="1512" height="135" viewBox="0 0 1512 135" fill="none" xmlns="http://www.w3.org/2000/svg">
<path d="M125.226 42.9248L129.242 77.3323L97.4361 63.6061L125.226 42.9248Z" fill="#A5CE89"/>
<path d="M6.49769 18.673L36.1811 36.5307L5.87419 53.3084L6.49769 18.673Z" fill="#FFD700"/>
<path d="M214.91 29.3457L247.829 40.1321L222.028 63.2475L214.91 29.3457Z" fill="#FF6961"/>
<path d="M324.356 94.1715L341.418 124.319L306.779 124.022L324.356 94.1715Z" fill="#FFD700"/>
<path d="M405.226 7.92482L409.242 42.3323L377.436 28.6061L405.226 7.92482Z" fill="#87CEFA"/>
<path d="M482.226 68.9248L486.242 103.332L454.436 89.6061L482.226 68.9248Z" fill="#FF6961"/>
<path d="M636.815 42.9248L640.831 77.3323L609.025 63.6061L636.815 42.9248Z" fill="#A5CE89"/>
<path d="M518.087 18.673L547.77 36.5307L517.463 53.3084L518.087 18.673Z" fill="#FFD700"/>
<path d="M726.499 29.3457L759.418 40.1321L733.617 63.2475L726.499 29.3457Z" fill="#FF6961"/>
<path d="M835.945 94.1715L853.007 124.319L818.368 124.022L835.945 94.1715Z" fill="#FFD700"/>
<path d="M916.815 7.92482L920.831 42.3323L889.025 28.6061L916.815 7.92482Z" fill="#87CEFA"/>
<path d="M993.815 68.9248L997.831 103.332L966.025 89.6061L993.815 68.9248Z" fill="#FF6961"/>
<path d="M1148.4 42.9248L1152.42 77.3323L1120.61 63.6061L1148.4 42.9248Z" fill="#A5CE89"/>
<path d="M1029.68 18.673L1059.36 36.5307L1029.05 53.3084L1029.68 18.673Z" fill="#FFD700"/>
<path d="M1238.09 29.3457L1271.01 40.1321L1245.21 63.2475L1238.09 29.3457Z" fill="#FF6961"/>
<path d="M1347.53 94.1715L1364.6 124.319L1329.96 124.022L1347.53 94.1715Z" fill="#FFD700"/>
<path d="M1428.4 7.92482L1432.42 42.3323L1400.61 28.6061L1428.4 7.92482Z" fill="#87CEFA"/>
<path d="M1505.4 68.9248L1509.42 103.332L1477.61 89.6061L1505.4 68.9248Z" fill="#FF6961"/>
</svg>
