<svg width="1476" height="95" viewBox="0 0 1476 95" fill="none" xmlns="http://www.w3.org/2000/svg">
<path d="M1100.23 2.92482L1104.24 37.3323L1072.44 23.6061L1100.23 2.92482Z" fill="#A5CE89"/>
<path d="M981.498 -21.3269L1011.18 -3.46928L980.874 13.3085L981.498 -21.3269Z" fill="#FFD700"/>
<path d="M1189.91 -10.6543L1222.83 0.132058L1197.03 23.2475L1189.91 -10.6543Z" fill="#FF6961"/>
<path d="M1299.36 54.1715L1316.42 84.3189L1281.78 84.0219L1299.36 54.1715Z" fill="#FFD700"/>
<path d="M1380.23 -32.0752L1384.24 2.33232L1352.44 -11.3939L1380.23 -32.0752Z" fill="#87CEFA"/>
<path d="M1457.21 8.92482L1461.23 43.3323L1429.42 29.6061L1457.21 8.92482Z" fill="#FF6961"/>
<path d="M1343.21 40.6504L1347.23 6.24288L1315.42 19.9691L1343.21 40.6504Z" fill="#87CEFA"/>
<path d="M618.226 21.0752L622.242 -13.3323L590.436 0.393882L618.226 21.0752Z" fill="#A5CE89"/>
<path d="M499.498 45.3269L529.181 27.4693L498.874 10.6915L499.498 45.3269Z" fill="#FFD700"/>
<path d="M707.91 34.6543L740.829 23.8679L715.028 0.752539L707.91 34.6543Z" fill="#FF6961"/>
<path d="M898.226 56.0752L902.242 21.6677L870.436 35.3939L898.226 56.0752Z" fill="#87CEFA"/>
<path d="M975.226 -4.92482L979.242 -39.3323L947.436 -25.6061L975.226 -4.92482Z" fill="#FF6961"/>
<path d="M313.213 44.6504L317.228 10.2429L285.423 23.9691L313.213 44.6504Z" fill="#87CEFA"/>
<path d="M384.896 72.1377L417.815 61.3513L392.014 38.2359L384.896 72.1377Z" fill="#FF6961"/>
<path d="M34.2125 31.6504L38.2281 -2.75712L6.42254 10.9691L34.2125 31.6504Z" fill="#FF6961"/>
</svg>
