<svg width="106" height="106" viewBox="0 0 106 106" fill="none" xmlns="http://www.w3.org/2000/svg">
<g clip-path="url(#clip0_792_5938)">
<path d="M88.3333 7.06641H24.7333C14.9763 7.06641 7.06665 14.976 7.06665 24.7331V88.3331C7.06665 98.0901 14.9763 106 24.7333 106H88.3333C98.0903 106 106 98.0901 106 88.3331V24.7331C106 14.976 98.0903 7.06641 88.3333 7.06641Z" fill="#222222"/>
<path d="M81.2667 0H17.6667C7.90964 0 0 7.90964 0 17.6667V81.2667C0 91.0237 7.90964 98.9333 17.6667 98.9333H81.2667C91.0237 98.9333 98.9333 91.0237 98.9333 81.2667V17.6667C98.9333 7.90964 91.0237 0 81.2667 0Z" fill="#FF6961"/>
<g clip-path="url(#clip1_792_5938)">
<path d="M68.3334 29.667H29.6667C27.0084 29.667 24.8575 31.842 24.8575 34.5003L24.8334 63.5003C24.8334 66.1587 27.0084 68.3337 29.6667 68.3337H68.3334C70.9917 68.3337 73.1667 66.1587 73.1667 63.5003V34.5003C73.1667 31.842 70.9917 29.667 68.3334 29.667ZM68.3334 39.3337L49 51.417L29.6667 39.3337V34.5003L49 46.5837L68.3334 34.5003V39.3337Z" fill="white"/>
</g>
</g>
<defs>
<clipPath id="clip0_792_5938">
<rect width="106" height="106" fill="white"/>
</clipPath>
<clipPath id="clip1_792_5938">
<rect width="58" height="58" fill="white" transform="translate(20 20)"/>
</clipPath>
</defs>
</svg>
