<svg width="106" height="106" viewBox="0 0 106 106" fill="none" xmlns="http://www.w3.org/2000/svg">
<g clip-path="url(#clip0_560_1111)">
<path d="M88.3333 7.06641H24.7333C14.9763 7.06641 7.06665 14.976 7.06665 24.7331V88.3331C7.06665 98.0901 14.9763 106 24.7333 106H88.3333C98.0903 106 106 98.0901 106 88.3331V24.7331C106 14.976 98.0903 7.06641 88.3333 7.06641Z" fill="#222222"/>
<path d="M81.2667 0H17.6667C7.90964 0 0 7.90964 0 17.6667V81.2667C0 91.0237 7.90964 98.9333 17.6667 98.9333H81.2667C91.0237 98.9333 98.9333 91.0237 98.9333 81.2667V17.6667C98.9333 7.90964 91.0237 0 81.2667 0Z" fill="#87CEFA"/>
<path d="M80 49.1884C80 64.7541 68.6488 77.6583 53.8308 80V58.2643H61.0358L62.4075 49.2716H53.8308V43.4368C53.8308 40.9755 55.0295 38.5792 58.8683 38.5792H62.7666V30.9224C62.7666 30.9224 59.2274 30.3142 55.8458 30.3142C48.783 30.3142 44.1692 34.6208 44.1692 42.4153V49.269H36.3184V58.2617H44.1692V79.9974C29.3538 77.6531 18 64.7515 18 49.1884C18 31.9646 31.8803 18 49 18C66.1198 18 80 31.962 80 49.1884Z" fill="#EEEEEE"/>
</g>
<defs>
<clipPath id="clip0_560_1111">
<rect width="106" height="106" fill="white"/>
</clipPath>
</defs>
</svg>
