<svg width="1511" height="1919" viewBox="0 0 1511 1919" fill="none" xmlns="http://www.w3.org/2000/svg">
<g clip-path="url(#clip0_962_529)">
<rect y="802" width="1513" height="142" fill="#87CEFA"/>
<path d="M0 70.9391L118.99 50.6708L320.442 70.9391L420.062 30.4024L519.128 101.341L708.404 40.5365L1012.24 91.2074L1174.95 50.6708L1271.25 101.341L1390.8 0L1512 70.9391V855.463L1326.04 885.866L1078.66 814.927L957.452 865.597L812.45 845.329L591.628 896L454.375 835.195L256.244 875.732L134.486 804.792L0 855.463V70.9391Z" fill="#EFF2F2"/>
<path d="M1511 1464.33L1392.09 1478.8L1190.77 1464.33L1091.22 1493.26L992.215 1442.64L803.065 1486.03L499.426 1449.87L336.823 1478.8L240.587 1442.64L121.123 1514.96L0 1464.33V904.417L185.833 882.718L433.058 933.348L554.181 897.185L699.087 911.65L919.764 875.486L1056.93 918.882L1254.93 889.951L1376.6 940.581L1511 904.417V1464.33Z" fill="#FFD700"/>
<path d="M1511 1034.64L1392.09 1007.32L1190.77 1034.64L1091.22 979.989L992.215 1075.63L803.065 993.652L499.426 1061.97L336.823 1007.32L240.587 1075.63L121.123 939L0 1034.64V2092.35L185.833 2133.34L433.058 2037.7L554.181 2106.01L699.087 2078.68L919.764 2147L1056.93 2065.02L1254.93 2119.67L1376.6 2024.03L1511 2092.35V1034.64Z" fill="#A5CE89"/>
</g>
<defs>
<clipPath id="clip0_962_529">
<rect width="1511" height="1919" fill="white"/>
</clipPath>
</defs>
</svg>
