<svg width="1512" height="275" viewBox="0 0 1512 275" fill="none" xmlns="http://www.w3.org/2000/svg">
<g clip-path="url(#clip0_969_591)">
<rect x="1" width="1513" height="142" fill="#87CEFA"/>
<path d="M1 -731.061L119.99 -751.329L321.442 -731.061L421.062 -771.598L520.128 -700.659L709.404 -761.463L1013.24 -710.793L1175.95 -751.329L1272.25 -700.659L1391.8 -802L1513 -731.061V53.4634L1327.04 83.8665L1079.66 12.9269L958.452 63.5969L813.45 43.3286L592.628 94L455.375 33.1952L257.244 73.7317L135.486 2.79205L1 53.4634V-731.061Z" fill="#EFF2F2"/>
<path d="M1512 662.334L1393.09 676.799L1191.77 662.334L1092.22 691.265L993.215 640.635L804.065 684.032L500.426 647.868L337.823 676.799L241.587 640.635L122.123 712.963L1 662.334V102.417L186.833 80.7183L434.058 131.348L555.181 95.1847L700.087 109.65L920.764 73.486L1057.93 116.882L1255.93 87.9515L1377.6 138.581L1512 102.417V662.334Z" fill="#FFD700"/>
<path d="M1512 232.641L1393.09 205.315L1191.77 232.641L1092.22 177.989L993.215 273.63L804.065 191.652L500.426 259.967L337.823 205.315L241.587 273.63L122.123 137L1 232.641V1290.35L186.833 1331.34L434.058 1235.7L555.181 1304.01L700.087 1276.68L920.764 1345L1057.93 1263.02L1255.93 1317.67L1377.6 1222.03L1512 1290.35V232.641Z" fill="#A5CE89"/>
</g>
<defs>
<clipPath id="clip0_969_591">
<rect width="1512" height="275" fill="white"/>
</clipPath>
</defs>
</svg>
