<svg width="106" height="106" viewBox="0 0 106 106" fill="none" xmlns="http://www.w3.org/2000/svg">
<g clip-path="url(#clip0_792_7308)">
<path d="M88.3333 7.06665H24.7333C14.9763 7.06665 7.06665 14.9763 7.06665 24.7333V88.3333C7.06665 98.0903 14.9763 106 24.7333 106H88.3333C98.0903 106 106 98.0903 106 88.3333V24.7333C106 14.9763 98.0903 7.06665 88.3333 7.06665Z" fill="#222222"/>
<path d="M81.2667 0H17.6667C7.90964 0 0 7.90964 0 17.6667V81.2667C0 91.0237 7.90964 98.9333 17.6667 98.9333H81.2667C91.0237 98.9333 98.9333 91.0237 98.9333 81.2667V17.6667C98.9333 7.90964 91.0237 0 81.2667 0Z" fill="#FFD700"/>
<path d="M59.1833 49.4667C59.1833 51.3885 58.6134 53.2671 57.5458 54.8649C56.478 56.4629 54.9606 57.7084 53.1851 58.4437C51.4096 59.1791 49.4559 59.3715 47.571 58.9966C45.6861 58.6217 43.9548 57.6964 42.5959 56.3374C41.237 54.9785 40.3116 53.2472 39.9367 51.3623C39.5618 49.4775 39.7542 47.5237 40.4897 45.7482C41.225 43.9727 42.4705 42.4553 44.0684 41.3876C45.6662 40.32 47.5449 39.75 49.4666 39.75C52.0412 39.758 54.508 40.7844 56.3285 42.6048C58.1489 44.4253 59.1754 46.8921 59.1833 49.4667ZM79.8312 36.1063V62.8271C79.8312 67.3369 78.0396 71.662 74.8508 74.8509C71.662 78.0397 67.3368 79.8313 62.827 79.8313H36.1062C31.5964 79.8313 27.2713 78.0397 24.0825 74.8509C20.8936 71.662 19.1021 67.3369 19.1021 62.8271V36.1063C19.1021 31.5965 20.8936 27.2714 24.0825 24.0825C27.2713 20.8937 31.5964 19.1021 36.1062 19.1021H62.827C67.3368 19.1021 71.662 20.8937 74.8508 24.0825C78.0396 27.2714 79.8312 31.5965 79.8312 36.1063ZM64.0416 49.4667C64.0416 46.584 63.1867 43.7662 61.5853 41.3692C59.9838 38.9723 57.7074 37.1043 55.0442 36.0012C52.3809 34.8981 49.4504 34.6094 46.6232 35.1717C43.796 35.7342 41.199 37.1223 39.1606 39.1607C37.1222 41.199 35.7342 43.796 35.1717 46.6232C34.6093 49.4504 34.898 52.381 36.0011 55.0442C37.1042 57.7075 38.9723 59.9838 41.3691 61.5853C43.7661 63.1868 46.584 64.0417 49.4666 64.0417C53.3321 64.0417 57.0394 62.5061 59.7727 59.7727C62.506 57.0395 64.0416 53.3322 64.0416 49.4667ZM68.9 33.6771C68.9 32.9565 68.6862 32.2519 68.2859 31.6527C67.8855 31.0536 67.3165 30.5865 66.6506 30.3107C65.9848 30.035 65.2522 29.9627 64.5453 30.1033C63.8385 30.2439 63.1892 30.5909 62.6797 31.1006C62.17 31.6101 61.8231 32.2594 61.6824 32.9662C61.5418 33.673 61.6141 34.4057 61.8898 35.0715C62.1656 35.7374 62.6327 36.3064 63.2318 36.7068C63.831 37.1071 64.5356 37.3209 65.2562 37.3209C66.2226 37.3209 67.1494 36.937 67.8327 36.2536C68.5161 35.5703 68.9 34.6435 68.9 33.6771Z" fill="black"/>
</g>
<defs>
<clipPath id="clip0_792_7308">
<rect width="106" height="106" fill="white"/>
</clipPath>
</defs>
</svg>
