<svg width="232" height="137" viewBox="0 0 232 137" fill="none" xmlns="http://www.w3.org/2000/svg">
<path d="M4 125.756C7.07001 125.927 10.5487 126.975 13.5319 127.701C21.5724 129.657 30.1016 132.214 38.3164 132.741C47.3135 133.319 55.1664 133.195 64.2805 132.741C70.6722 132.423 86.2931 130.626 92.3406 127.701C103.473 122.317 111.342 120.243 119.972 111.078C126.953 103.664 130.763 93.8505 134.093 84.3748C136.052 78.7999 138.879 67.4832 136.123 61.739C133.4 56.0646 130.213 50.15 126.326 45.2043C124.262 42.5771 118.913 38.7037 115.751 38.7037C113.226 38.7037 117.54 39.3788 115.031 39.0646C114.032 38.9394 108.958 41.2178 108.057 41.579C105.949 42.4235 104.293 46.1916 103.467 48.1222C100.958 53.9877 100.624 61.2333 100.624 67.5698C100.624 84.8287 117.955 93.5202 132.681 96.7538C139.906 98.3404 152.237 98.1866 159.864 96.7538C168.262 95.1764 177.921 89.5018 183.518 82.9601C184.903 81.341 186.534 80.6949 188.24 79.5117C190.404 78.0107 191.239 75.4362 193.05 73.5874C196.127 70.4453 199.729 68.2206 202.582 64.7453C208.235 57.8573 213.449 48.602 216.526 40.1643C220.718 28.6711 228 16.4427 228 4" stroke="white" stroke-width="7.02745" stroke-linecap="round"/>
</svg>
