<svg width="757" height="112" viewBox="0 0 757 112" fill="none" xmlns="http://www.w3.org/2000/svg">
<ellipse cx="377.474" cy="62.0262" rx="46.0766" ry="28.3548" fill="#433F41"/>
<ellipse cx="331.397" cy="79.748" rx="53.1653" ry="24.8105" fill="#433F41"/>
<ellipse cx="407.601" cy="86.8367" rx="53.1653" ry="24.8105" fill="#433F41"/>
<ellipse cx="85.6283" cy="26.7437" rx="37.699" ry="23.1994" fill="#433F41"/>
<ellipse cx="47.9293" cy="41.2433" rx="43.4989" ry="20.2995" fill="#433F41"/>
<ellipse cx="110.278" cy="47.0432" rx="43.4989" ry="20.2995" fill="#433F41"/>
<ellipse cx="81.1979" cy="23.1994" rx="37.699" ry="23.1994" fill="white"/>
<ellipse cx="43.4989" cy="37.699" rx="43.4989" ry="20.2995" fill="white"/>
<ellipse cx="105.847" cy="43.4989" rx="43.4989" ry="20.2995" fill="white"/>
<ellipse cx="688.168" cy="39.149" rx="37.699" ry="23.1994" fill="#433F41"/>
<ellipse cx="650.469" cy="53.6486" rx="43.4989" ry="20.2995" fill="#433F41"/>
<ellipse cx="712.818" cy="59.4485" rx="43.4989" ry="20.2995" fill="#433F41"/>
<ellipse cx="682.852" cy="34.7186" rx="37.699" ry="23.1994" fill="white"/>
<ellipse cx="645.153" cy="49.2182" rx="43.4989" ry="20.2995" fill="white"/>
<ellipse cx="707.501" cy="55.0181" rx="43.4989" ry="20.2995" fill="white"/>
<ellipse cx="374.815" cy="57.5958" rx="46.0766" ry="28.3548" fill="white"/>
<ellipse cx="328.739" cy="75.3176" rx="53.1653" ry="24.8105" fill="white"/>
<ellipse cx="404.942" cy="82.4063" rx="53.1653" ry="24.8105" fill="white"/>
</svg>
