<svg width="201" height="195" viewBox="0 0 201 195" fill="none" xmlns="http://www.w3.org/2000/svg">
<path d="M99.6137 13.2896C101.009 9.06119 106.991 9.0612 108.386 13.2896L120.139 48.8964C121.023 51.5762 124.082 52.8434 126.603 51.574L160.091 34.7062C164.067 32.7031 168.297 36.9326 166.294 40.9094L149.426 74.3973C148.157 76.9175 149.424 79.977 152.104 80.8615L187.71 92.6137C191.939 94.0093 191.939 99.9907 187.71 101.386L152.104 113.139C149.424 114.023 148.157 117.082 149.426 119.603L166.294 153.091C168.297 157.067 164.067 161.297 160.091 159.294L126.603 142.426C124.082 141.157 121.023 142.424 120.139 145.104L108.386 180.71C106.991 184.939 101.009 184.939 99.6137 180.71L87.8615 145.104C86.977 142.424 83.9175 141.157 81.3973 142.426L47.9094 159.294C43.9326 161.297 39.7031 157.067 41.7062 153.091L58.574 119.603C59.8434 117.082 58.5762 114.023 55.8964 113.139L20.2896 101.386C16.0612 99.9907 16.0612 94.0093 20.2896 92.6137L55.8964 80.8615C58.5762 79.977 59.8434 76.9175 58.574 74.3973L41.7062 40.9094C39.7031 36.9326 43.9326 32.7031 47.9094 34.7062L81.3973 51.574C83.9175 52.8434 86.977 51.5762 87.8615 48.8964L99.6137 13.2896Z" fill="#433F41"/>
<path d="M92.6137 14.2896C94.0093 10.0612 99.9907 10.0612 101.386 14.2896L113.139 49.8964C114.023 52.5762 117.082 53.8434 119.603 52.574L153.091 35.7062C157.067 33.7031 161.297 37.9326 159.294 41.9094L142.426 75.3973C141.157 77.9175 142.424 80.977 145.104 81.8615L180.71 93.6137C184.939 95.0093 184.939 100.991 180.71 102.386L145.104 114.139C142.424 115.023 141.157 118.082 142.426 120.603L159.294 154.091C161.297 158.067 157.067 162.297 153.091 160.294L119.603 143.426C117.082 142.157 114.023 143.424 113.139 146.104L101.386 181.71C99.9907 185.939 94.0093 185.939 92.6137 181.71L80.8615 146.104C79.977 143.424 76.9175 142.157 74.3973 143.426L40.9094 160.294C36.9326 162.297 32.7031 158.067 34.7062 154.091L51.574 120.603C52.8434 118.082 51.5762 115.023 48.8964 114.139L13.2896 102.386C9.06119 100.991 9.0612 95.0093 13.2896 93.6137L48.8964 81.8615C51.5762 80.977 52.8434 77.9175 51.574 75.3973L34.7062 41.9094C32.7031 37.9326 36.9326 33.7031 40.9094 35.7062L74.3973 52.574C76.9175 53.8434 79.977 52.5762 80.8615 49.8964L92.6137 14.2896Z" fill="#FFD700"/>
</svg>
