<svg width="100" height="100" viewBox="0 0 100 100" fill="none" xmlns="http://www.w3.org/2000/svg">
<path d="M46.1237 3.16048C47.0569 -0.970656 52.9431 -0.970669 53.8763 3.16047L58.1151 21.9258C58.7199 24.6032 61.7923 25.8759 64.1132 24.4103L80.3796 14.1385C83.9606 11.8772 88.1228 16.0394 85.8615 19.6204L75.5897 35.8868C74.1241 38.2077 75.3968 41.2801 78.0742 41.8849L96.8395 46.1237C100.971 47.0569 100.971 52.9431 96.8395 53.8763L78.0742 58.1151C75.3968 58.7199 74.1241 61.7923 75.5897 64.1132L85.8615 80.3796C88.1228 83.9606 83.9606 88.1228 80.3796 85.8615L64.1132 75.5897C61.7923 74.1241 58.7199 75.3968 58.1151 78.0742L53.8763 96.8395C52.9431 100.971 47.0569 100.971 46.1237 96.8395L41.8849 78.0742C41.2801 75.3968 38.2077 74.1241 35.8868 75.5897L19.6204 85.8615C16.0394 88.1228 11.8772 83.9606 14.1385 80.3796L24.4103 64.1132C25.8759 61.7923 24.6032 58.7199 21.9258 58.1151L3.16048 53.8763C-0.970656 52.9431 -0.970669 47.0569 3.16047 46.1237L21.9258 41.8849C24.6032 41.2801 25.8759 38.2077 24.4103 35.8868L14.1385 19.6204C11.8772 16.0394 16.0394 11.8772 19.6204 14.1385L35.8868 24.4103C38.2077 25.8759 41.2801 24.6032 41.8849 21.9258L46.1237 3.16048Z" fill="#FF6961"/>
</svg>
