<svg width="1169" height="394" viewBox="0 0 1169 394" fill="none" xmlns="http://www.w3.org/2000/svg">
<g clip-path="url(#clip0_924_648)">
<rect x="684" y="323.65" width="481" height="70" rx="16" transform="rotate(-4.01166 684 323.65)" fill="#87CEFA"/>
<path d="M734.573 343.22L735.614 358.064C735.681 359.021 735.583 359.91 735.32 360.731C735.075 361.53 734.673 362.23 734.114 362.83C733.553 363.411 732.855 363.891 732.019 364.27C731.203 364.629 730.255 364.845 729.178 364.921C728.141 364.994 727.213 364.918 726.395 364.695C725.598 364.47 724.891 364.119 724.276 363.641C723.681 363.161 723.179 362.575 722.77 361.882C722.36 361.189 722.055 360.408 721.854 359.54L726.044 358.404C726.511 360.196 727.442 361.043 728.839 360.945C729.497 360.899 730.041 360.65 730.471 360.199C730.92 359.746 731.114 359.071 731.051 358.173L730.28 347.19L723.936 347.635L723.68 343.984L734.573 343.22ZM749.617 360.51L749.468 360.521C749.356 360.929 749.193 361.322 748.979 361.698C748.785 362.072 748.518 362.412 748.178 362.716C747.839 363.021 747.425 363.27 746.937 363.465C746.47 363.658 745.917 363.777 745.278 363.822C743.662 363.935 742.398 363.492 741.486 362.494C740.593 361.474 740.076 359.966 739.936 357.971L739.243 348.095L743.673 347.785L744.338 357.272C744.405 358.229 744.626 358.956 745.002 359.45C745.377 359.945 745.974 360.164 746.792 360.107C747.131 360.083 747.467 360.009 747.799 359.886C748.131 359.762 748.421 359.602 748.668 359.404C748.913 359.186 749.106 358.932 749.246 358.642C749.386 358.351 749.442 358.016 749.416 357.637L748.7 347.432L753.129 347.122L754.231 362.833L749.802 363.144L749.617 360.51ZM758.601 362.527L757.5 346.815L761.929 346.505L762.116 349.168L762.295 349.155C762.517 348.318 762.956 347.575 763.612 346.928C764.269 346.28 765.215 345.913 766.452 345.826C768.068 345.713 769.323 346.166 770.217 347.186C771.13 348.205 771.657 349.712 771.797 351.707L772.487 361.553L768.058 361.863L767.393 352.377C767.322 351.359 767.11 350.622 766.757 350.166C766.403 349.689 765.816 349.48 764.998 349.537C764.639 349.562 764.294 349.637 763.962 349.76C763.628 349.864 763.328 350.025 763.063 350.244C762.818 350.462 762.626 350.726 762.487 351.037C762.347 351.327 762.29 351.662 762.317 352.041L763.031 362.216L758.601 362.527ZM777.673 343.716C776.776 343.779 776.103 343.626 775.656 343.256C775.228 342.865 774.991 342.351 774.946 341.712L774.9 341.054C774.856 340.415 775.019 339.883 775.39 339.456C775.779 339.007 776.423 338.752 777.321 338.689C778.219 338.626 778.882 338.79 779.31 339.181C779.757 339.55 780.003 340.054 780.048 340.693L780.094 341.351C780.139 341.99 779.966 342.533 779.577 342.981C779.206 343.408 778.571 343.653 777.673 343.716ZM775.576 345.547L780.005 345.237L781.107 360.948L776.678 361.259L775.576 345.547ZM791.89 360.553C790.733 360.634 789.682 360.517 788.738 360.203C787.813 359.886 787.007 359.392 786.318 358.718C785.649 358.043 785.11 357.209 784.699 356.215C784.288 355.222 784.039 354.096 783.951 352.839C783.863 351.582 783.953 350.433 784.22 349.392C784.488 348.351 784.907 347.459 785.476 346.718C786.065 345.955 786.794 345.352 787.665 344.91C788.557 344.467 789.581 344.204 790.738 344.123C791.895 344.042 792.936 344.16 793.86 344.476C794.804 344.79 795.611 345.285 796.28 345.96C796.967 346.614 797.516 347.437 797.927 348.431C798.337 349.425 798.587 350.55 798.675 351.807C798.763 353.064 798.673 354.213 798.405 355.254C798.138 356.295 797.71 357.198 797.122 357.961C796.553 358.722 795.824 359.325 794.933 359.768C794.061 360.21 793.047 360.472 791.89 360.553ZM791.645 357.051C792.522 356.99 793.182 356.673 793.623 356.101C794.064 355.528 794.249 354.744 794.179 353.746L793.955 350.544C793.885 349.546 793.592 348.795 793.075 348.29C792.558 347.785 791.861 347.563 790.983 347.625C790.106 347.686 789.446 348.003 789.005 348.575C788.564 349.148 788.378 349.933 788.448 350.93L788.673 354.132C788.743 355.13 789.036 355.881 789.553 356.386C790.069 356.891 790.767 357.113 791.645 357.051ZM802.632 359.439L801.53 343.727L805.959 343.417L806.199 346.828L806.348 346.818C806.397 346.373 806.507 345.944 806.679 345.531C806.849 345.098 807.083 344.711 807.379 344.37C807.696 344.027 808.078 343.749 808.524 343.537C808.969 343.306 809.501 343.168 810.119 343.125L810.897 343.07L811.187 347.2L810.08 347.278C808.783 347.369 807.827 347.606 807.212 347.99C806.618 348.373 806.352 349.023 806.417 349.941L807.061 359.128L802.632 359.439ZM822.542 358.042L821.077 337.154L830.953 336.461C831.93 336.392 832.82 336.501 833.622 336.785C834.422 337.05 835.112 337.452 835.691 337.993C836.291 338.533 836.769 339.211 837.127 340.028C837.484 340.825 837.697 341.712 837.765 342.69C837.835 343.687 837.749 344.606 837.507 345.445C837.265 346.283 836.885 347.012 836.367 347.63C835.869 348.246 835.243 348.751 834.489 349.145C833.733 349.519 832.866 349.74 831.889 349.808L826.562 350.182L827.091 357.723L822.542 358.042ZM826.285 346.232L831.073 345.896C831.751 345.848 832.268 345.642 832.623 345.276C832.997 344.889 833.16 344.356 833.113 343.678L833.02 342.361C832.973 341.683 832.738 341.188 832.315 340.877C831.911 340.544 831.369 340.402 830.691 340.449L825.903 340.785L826.285 346.232ZM841.899 356.685L840.797 340.973L845.226 340.663L845.465 344.074L845.615 344.064C845.664 343.619 845.774 343.191 845.946 342.778C846.116 342.345 846.349 341.957 846.646 341.616C846.963 341.273 847.345 340.995 847.791 340.784C848.236 340.552 848.767 340.414 849.386 340.371L850.164 340.316L850.454 344.446L849.346 344.524C848.05 344.615 847.094 344.852 846.479 345.236C845.884 345.619 845.619 346.269 845.684 347.187L846.328 356.374L841.899 356.685ZM860.501 355.741C859.344 355.822 858.293 355.705 857.349 355.391C856.424 355.075 855.618 354.58 854.929 353.906C854.26 353.232 853.72 352.397 853.31 351.404C852.899 350.41 852.65 349.285 852.562 348.028C852.474 346.771 852.563 345.622 852.831 344.58C853.099 343.539 853.518 342.648 854.087 341.906C854.675 341.143 855.405 340.54 856.276 340.098C857.167 339.655 858.191 339.393 859.349 339.311C860.506 339.23 861.547 339.348 862.471 339.664C863.415 339.979 864.222 340.473 864.891 341.148C865.578 341.802 866.127 342.625 866.538 343.619C866.948 344.613 867.197 345.738 867.286 346.995C867.374 348.252 867.284 349.401 867.016 350.442C866.748 351.484 866.32 352.386 865.732 353.149C865.164 353.91 864.435 354.513 863.543 354.956C862.672 355.398 861.658 355.66 860.501 355.741ZM860.255 352.24C861.133 352.178 861.793 351.861 862.234 351.289C862.675 350.717 862.86 349.932 862.79 348.934L862.566 345.732C862.496 344.735 862.202 343.983 861.686 343.478C861.169 342.973 860.472 342.751 859.594 342.813C858.716 342.874 858.057 343.191 857.616 343.764C857.175 344.336 856.989 345.121 857.059 346.118L857.284 349.32C857.354 350.318 857.647 351.069 858.164 351.574C858.68 352.08 859.377 352.301 860.255 352.24ZM885.867 354.744C885.926 355.582 885.828 356.331 885.573 356.99C885.339 357.648 884.908 358.22 884.28 358.705C883.654 359.21 882.8 359.611 881.718 359.907C880.657 360.222 879.329 360.435 877.733 360.547C876.376 360.642 875.213 360.634 874.243 360.521C873.294 360.428 872.509 360.242 871.888 359.965C871.288 359.706 870.833 359.357 870.521 358.918C870.231 358.497 870.066 357.997 870.025 357.419C869.964 356.541 870.175 355.835 870.658 355.299C871.142 354.764 871.839 354.405 872.748 354.221L872.725 353.891C871.957 353.805 871.366 353.526 870.952 353.053C870.537 352.561 870.305 351.976 870.257 351.298C870.228 350.879 870.283 350.514 870.421 350.204C870.579 349.872 870.779 349.587 871.023 349.349C871.286 349.09 871.591 348.878 871.941 348.714C872.29 348.549 872.642 348.414 872.995 348.309L872.987 348.189C871.998 347.817 871.248 347.268 870.736 346.543C870.223 345.797 869.93 344.915 869.859 343.897C869.747 342.301 870.206 340.986 871.236 339.951C872.285 338.895 873.946 338.288 876.221 338.128C877.258 338.055 878.153 338.093 878.905 338.241L878.863 337.642C878.804 336.804 878.962 336.192 879.336 335.805C879.728 335.396 880.303 335.165 881.062 335.112L883.546 334.938L883.776 338.23L880.305 338.473L880.318 338.653C881.266 339.027 881.987 339.588 882.481 340.336C882.973 341.063 883.254 341.935 883.326 342.953C883.436 344.529 882.966 345.835 881.916 346.871C880.885 347.886 879.232 348.473 876.957 348.632C875.94 348.704 875.005 348.659 874.151 348.498C873.713 348.83 873.513 349.265 873.551 349.804C873.578 350.183 873.738 350.472 874.033 350.672C874.346 350.851 874.842 350.916 875.52 350.868L880.069 350.549C881.984 350.415 883.399 350.717 884.313 351.455C885.247 352.191 885.765 353.288 885.867 354.744ZM881.749 355.634C881.717 355.175 881.513 354.839 881.137 354.625C880.761 354.41 880.124 354.335 879.226 354.398L873.84 354.776C873.654 354.989 873.52 355.219 873.437 355.465C873.375 355.73 873.353 355.983 873.37 356.222C873.41 356.801 873.689 357.202 874.206 357.426C874.724 357.671 875.582 357.751 876.779 357.667L878.575 357.541C879.772 357.457 880.61 357.258 881.089 356.944C881.57 356.649 881.79 356.213 881.749 355.634ZM876.754 345.73C877.632 345.668 878.268 345.443 878.661 345.054C879.074 344.645 879.255 344.091 879.206 343.392L879.181 343.033C879.132 342.335 878.876 341.822 878.412 341.493C877.966 341.143 877.304 340.999 876.426 341.061C875.549 341.123 874.904 341.358 874.491 341.768C874.097 342.157 873.925 342.7 873.974 343.398L873.999 343.757C874.048 344.456 874.295 344.98 874.741 345.329C875.205 345.658 875.876 345.791 876.754 345.73ZM888.004 353.451L886.903 337.74L891.332 337.429L891.571 340.841L891.721 340.83C891.77 340.386 891.88 339.957 892.051 339.544C892.221 339.111 892.455 338.724 892.752 338.382C893.069 338.039 893.45 337.762 893.896 337.55C894.341 337.319 894.873 337.181 895.491 337.138L896.269 337.083L896.559 341.213L895.452 341.291C894.155 341.381 893.199 341.619 892.585 342.003C891.99 342.385 891.725 343.036 891.789 343.953L892.433 353.141L888.004 353.451ZM911.555 351.8C910.757 351.856 910.071 351.653 909.498 351.192C908.944 350.73 908.568 350.084 908.37 349.256L908.19 349.269C908.022 350.303 907.548 351.118 906.768 351.714C905.986 352.291 904.997 352.621 903.8 352.705C902.223 352.815 900.987 352.481 900.09 351.702C899.194 350.922 898.697 349.844 898.6 348.468C898.484 346.812 898.997 345.543 900.138 344.661C901.298 343.758 902.915 343.233 904.99 343.088L907.474 342.913L907.404 341.926C907.351 341.168 907.11 340.583 906.68 340.172C906.249 339.741 905.564 339.559 904.627 339.625C903.749 339.686 903.064 339.925 902.572 340.34C902.079 340.756 901.681 341.215 901.375 341.717L898.578 339.568C899.15 338.585 899.897 337.801 900.819 337.215C901.758 336.608 903.056 336.246 904.712 336.13C906.947 335.973 908.657 336.345 909.843 337.244C911.029 338.143 911.687 339.53 911.819 341.406L912.301 348.289L913.768 348.186L914.009 351.628L911.555 351.8ZM905.229 349.507C905.968 349.455 906.585 349.251 907.081 348.896C907.597 348.539 907.83 348.001 907.78 347.283L907.65 345.427L905.495 345.578C903.759 345.7 902.933 346.35 903.015 347.527L903.047 347.976C903.087 348.554 903.297 348.971 903.676 349.225C904.053 349.459 904.571 349.553 905.229 349.507ZM917.231 351.402L916.13 335.69L920.559 335.38L920.745 338.043L920.925 338.03C921.146 337.173 921.575 336.431 922.212 335.805C922.849 335.159 923.756 334.795 924.933 334.712C926.01 334.636 926.947 334.841 927.743 335.327C928.538 335.812 929.142 336.562 929.554 337.576L929.644 337.569C929.753 337.121 929.934 336.697 930.187 336.298C930.458 335.878 930.793 335.514 931.193 335.205C931.592 334.897 932.045 334.644 932.553 334.448C933.059 334.232 933.611 334.103 934.21 334.061C935.726 333.955 936.921 334.413 937.795 335.434C938.688 336.454 939.205 337.961 939.345 339.957L940.035 349.802L935.606 350.113L934.941 340.626C934.801 338.631 934.013 337.684 932.576 337.785C931.918 337.831 931.333 338.062 930.821 338.479C930.309 338.896 930.08 339.494 930.134 340.272L930.848 350.447L926.419 350.757L925.754 341.271C925.614 339.276 924.825 338.328 923.389 338.429C923.07 338.451 922.754 338.524 922.442 338.646C922.148 338.747 921.879 338.906 921.633 339.124C921.408 339.34 921.226 339.603 921.087 339.914C920.967 340.203 920.92 340.537 920.947 340.916L921.661 351.091L917.231 351.402ZM944.222 349.509L943.12 333.797L947.549 333.487L947.736 336.15L947.915 336.138C948.136 335.28 948.565 334.538 949.203 333.912C949.839 333.266 950.746 332.902 951.923 332.819C953 332.744 953.937 332.949 954.733 333.434C955.529 333.92 956.133 334.669 956.545 335.683L956.634 335.676C956.743 335.228 956.924 334.804 957.177 334.405C957.448 333.985 957.783 333.621 958.183 333.312C958.582 333.004 959.036 332.751 959.543 332.555C960.049 332.339 960.602 332.21 961.2 332.168C962.717 332.062 963.911 332.52 964.785 333.541C965.679 334.561 966.195 336.069 966.335 338.064L967.026 347.909L962.597 348.22L961.931 338.733C961.791 336.738 961.003 335.791 959.567 335.892C958.908 335.938 958.323 336.17 957.811 336.586C957.299 337.003 957.07 337.601 957.125 338.379L957.838 348.554L953.409 348.864L952.744 339.378C952.604 337.383 951.816 336.435 950.379 336.536C950.06 336.559 949.744 336.631 949.432 336.753C949.138 336.854 948.869 337.013 948.624 337.231C948.398 337.447 948.216 337.71 948.078 338.021C947.957 338.31 947.911 338.644 947.937 339.023L948.651 349.198L944.222 349.509ZM977.791 347.515C976.594 347.599 975.513 347.485 974.549 347.171C973.583 346.838 972.747 346.345 972.04 345.693C971.351 345.02 970.801 344.186 970.391 343.193C970 342.197 969.761 341.071 969.673 339.814C969.586 338.578 969.667 337.449 969.916 336.429C970.164 335.389 970.572 334.489 971.14 333.727C971.728 332.964 972.468 332.361 973.359 331.917C974.249 331.454 975.282 331.181 976.459 331.098C977.756 331.007 978.879 331.149 979.827 331.524C980.796 331.897 981.595 332.432 982.226 333.13C982.876 333.826 983.365 334.654 983.693 335.613C984.039 336.551 984.25 337.549 984.324 338.607L984.416 339.923L974.331 340.631L974.348 340.87C974.421 341.907 974.758 342.716 975.36 343.295C975.961 343.854 976.859 344.092 978.056 344.008C978.974 343.944 979.71 343.712 980.263 343.312C980.815 342.892 981.322 342.406 981.785 341.852L984.192 344.45C983.552 345.317 982.679 346.02 981.574 346.558C980.488 347.096 979.228 347.415 977.791 347.515ZM976.778 334.354C975.88 334.417 975.193 334.766 974.716 335.401C974.258 336.014 974.063 336.81 974.132 337.788L974.148 338.027L979.655 337.641L979.636 337.371C979.569 336.414 979.296 335.661 978.816 335.113C978.355 334.544 977.676 334.291 976.778 334.354ZM988.266 346.42L987.164 330.708L991.593 330.398L991.832 333.809L991.982 333.799C992.031 333.354 992.141 332.926 992.313 332.513C992.483 332.08 992.716 331.692 993.013 331.351C993.33 331.008 993.712 330.73 994.158 330.519C994.603 330.287 995.134 330.15 995.753 330.106L996.531 330.052L996.821 334.181L995.713 334.259C994.417 334.35 993.461 334.587 992.846 334.971C992.252 335.354 991.986 336.004 992.051 336.922L992.695 346.109L988.266 346.42ZM1016.64 344.791C1015.22 344.89 1013.93 344.76 1012.76 344.401C1011.59 344.022 1010.58 343.421 1009.72 342.6C1008.86 341.758 1008.16 340.694 1007.63 339.408C1007.1 338.102 1006.77 336.561 1006.65 334.786C1006.52 333.03 1006.63 331.458 1006.98 330.071C1007.32 328.663 1007.86 327.473 1008.59 326.499C1009.32 325.505 1010.24 324.729 1011.34 324.171C1012.45 323.612 1013.71 323.283 1015.12 323.184C1017.06 323.048 1018.68 323.335 1020 324.045C1021.31 324.735 1022.4 325.901 1023.28 327.544L1019.5 329.854C1019.16 328.996 1018.67 328.328 1018.04 327.852C1017.42 327.353 1016.55 327.144 1015.41 327.224C1014.07 327.318 1013.02 327.832 1012.27 328.767C1011.53 329.681 1011.22 330.966 1011.34 332.622L1011.57 335.974C1011.69 337.63 1012.17 338.869 1013.03 339.691C1013.91 340.491 1015.02 340.845 1016.36 340.751C1017.47 340.672 1018.34 340.311 1018.96 339.666C1019.59 339 1020.04 338.227 1020.3 337.347L1024.16 339.241C1023.49 340.892 1022.55 342.201 1021.34 343.168C1020.14 344.114 1018.58 344.655 1016.64 344.791ZM1039.29 342.841C1038.49 342.897 1037.81 342.695 1037.23 342.234C1036.68 341.772 1036.3 341.126 1036.1 340.298L1035.93 340.311C1035.76 341.345 1035.28 342.16 1034.5 342.756C1033.72 343.332 1032.73 343.662 1031.53 343.746C1029.96 343.857 1028.72 343.522 1027.83 342.743C1026.93 341.964 1026.43 340.886 1026.34 339.51C1026.22 337.854 1026.73 336.585 1027.87 335.703C1029.03 334.799 1030.65 334.275 1032.72 334.129L1035.21 333.955L1035.14 332.968C1035.09 332.21 1034.84 331.625 1034.41 331.214C1033.98 330.783 1033.3 330.601 1032.36 330.666C1031.48 330.728 1030.8 330.966 1030.31 331.382C1029.81 331.797 1029.42 332.256 1029.11 332.759L1026.31 330.609C1026.89 329.627 1027.63 328.843 1028.55 328.257C1029.49 327.65 1030.79 327.288 1032.45 327.172C1034.68 327.015 1036.39 327.386 1037.58 328.286C1038.76 329.185 1039.42 330.572 1039.55 332.448L1040.04 339.331L1041.5 339.228L1041.74 342.669L1039.29 342.841ZM1032.96 340.548C1033.7 340.497 1034.32 340.293 1034.82 339.937C1035.33 339.58 1035.57 339.043 1035.52 338.325L1035.38 336.469L1033.23 336.62C1031.49 336.742 1030.67 337.391 1030.75 338.568L1030.78 339.017C1030.82 339.596 1031.03 340.012 1031.41 340.266C1031.79 340.501 1032.31 340.595 1032.96 340.548ZM1044.97 342.443L1043.86 326.732L1048.29 326.421L1048.48 329.085L1048.66 329.072C1048.88 328.215 1049.31 327.473 1049.95 326.847C1050.58 326.201 1051.49 325.836 1052.67 325.754C1053.75 325.678 1054.68 325.883 1055.48 326.369C1056.27 326.854 1056.88 327.604 1057.29 328.617L1057.38 328.611C1057.49 328.162 1057.67 327.739 1057.92 327.34C1058.19 326.92 1058.53 326.556 1058.93 326.247C1059.33 325.938 1059.78 325.686 1060.29 325.49C1060.79 325.274 1061.35 325.145 1061.94 325.103C1063.46 324.997 1064.66 325.454 1065.53 326.476C1066.42 327.496 1066.94 329.003 1067.08 330.998L1067.77 340.844L1063.34 341.155L1062.68 331.668C1062.54 329.673 1061.75 328.726 1060.31 328.827C1059.65 328.873 1059.07 329.104 1058.56 329.521C1058.04 329.938 1057.81 330.535 1057.87 331.313L1058.58 341.488L1054.15 341.799L1053.49 332.312C1053.35 330.317 1052.56 329.37 1051.12 329.471C1050.8 329.493 1050.49 329.565 1050.18 329.688C1049.88 329.788 1049.61 329.948 1049.37 330.165C1049.14 330.382 1048.96 330.645 1048.82 330.956C1048.7 331.245 1048.66 331.579 1048.68 331.958L1049.4 342.133L1044.97 342.443ZM1070.85 324.839L1075.28 324.529L1075.47 327.162L1075.62 327.152C1075.78 326.258 1076.22 325.505 1076.96 324.892C1077.72 324.277 1078.61 323.934 1079.63 323.863C1081.62 323.723 1083.18 324.316 1084.29 325.641C1085.41 326.966 1086.06 328.965 1086.25 331.639C1086.44 334.312 1086.07 336.393 1085.15 337.881C1084.23 339.349 1082.78 340.153 1080.78 340.293C1080.26 340.329 1079.77 340.283 1079.3 340.156C1078.83 340.049 1078.4 339.878 1078 339.646C1077.62 339.392 1077.29 339.094 1077 338.753C1076.72 338.392 1076.5 338.006 1076.35 337.596L1076.2 337.606L1076.81 346.225L1072.38 346.536L1070.85 324.839ZM1079.06 336.804C1079.9 336.746 1080.57 336.408 1081.07 335.792C1081.58 335.154 1081.81 334.336 1081.74 333.339L1081.55 330.615C1081.48 329.618 1081.14 328.849 1080.54 328.31C1079.96 327.749 1079.25 327.498 1078.41 327.557C1077.58 327.616 1076.89 327.874 1076.36 328.332C1075.85 328.769 1075.62 329.347 1075.67 330.065L1076 334.704C1076.05 335.422 1076.36 335.971 1076.93 336.353C1077.51 336.712 1078.22 336.863 1079.06 336.804ZM1098.48 338.69L1098.23 335.069L1103.86 334.675L1102.87 320.669L1102.6 320.688L1098.74 326.552L1095.71 324.509L1100.25 317.575L1107.13 317.092L1108.34 334.36L1112.77 334.049L1113.03 337.67L1098.48 338.69ZM1122.99 337.333C1121.75 337.419 1120.63 337.307 1119.63 336.997C1118.62 336.667 1117.75 336.166 1117.02 335.495C1116.31 334.803 1115.74 333.961 1115.31 332.969C1114.9 331.975 1114.65 330.85 1114.56 329.593C1114.46 328.136 1114.59 326.744 1114.93 325.417C1115.3 324.068 1115.79 322.82 1116.42 321.674C1117.06 320.506 1117.78 319.453 1118.6 318.513C1119.44 317.573 1120.28 316.771 1121.14 316.11L1127.33 315.676C1126.12 316.683 1125.03 317.641 1124.08 318.55C1123.12 319.44 1122.29 320.33 1121.59 321.221C1120.91 322.111 1120.35 323.012 1119.91 323.925C1119.49 324.816 1119.22 325.768 1119.09 326.779L1119.36 326.85C1119.52 326.439 1119.7 326.035 1119.91 325.639C1120.14 325.242 1120.43 324.891 1120.77 324.586C1121.13 324.261 1121.55 323.99 1122.04 323.776C1122.52 323.561 1123.09 323.431 1123.75 323.385C1124.61 323.325 1125.42 323.428 1126.18 323.696C1126.96 323.942 1127.64 324.325 1128.22 324.846C1128.81 325.366 1129.29 326.024 1129.65 326.821C1130.02 327.597 1130.24 328.473 1130.31 329.451C1130.39 330.528 1130.27 331.529 1129.95 332.453C1129.66 333.376 1129.18 334.191 1128.53 334.899C1127.9 335.585 1127.11 336.141 1126.18 336.567C1125.25 336.994 1124.18 337.249 1122.99 337.333ZM1122.74 333.831C1123.74 333.761 1124.5 333.437 1125.02 332.859C1125.54 332.262 1125.76 331.454 1125.69 330.437L1125.65 329.898C1125.58 328.88 1125.25 328.122 1124.65 327.622C1124.05 327.103 1123.26 326.878 1122.26 326.948C1121.26 327.018 1120.5 327.352 1119.98 327.95C1119.46 328.528 1119.24 329.325 1119.31 330.343L1119.35 330.881C1119.42 331.899 1119.75 332.667 1120.35 333.187C1120.95 333.686 1121.74 333.901 1122.74 333.831Z" fill="white"/>
</g>
<mask id="path-3-outside-1_924_648" maskUnits="userSpaceOnUse" x="654" y="10" width="164" height="276" fill="black">
<rect fill="white" x="654" y="10" width="164" height="276"/>
<path d="M706.18 151.344C713.862 151.344 720.698 150.628 726.688 149.195C732.677 147.763 735.672 145.615 735.672 142.75C735.672 140.927 735.086 139.43 733.914 138.258C725.971 141.122 717.312 142.555 707.938 142.555C695.177 142.555 684.435 138.193 675.711 129.469C666.987 120.615 662.625 107.919 662.625 91.3828C662.625 80.4453 664.904 69.8333 669.461 59.5469C685.867 57.5938 698.628 54.3385 707.742 49.7812C720.503 43.2708 731.44 32.7891 740.555 18.3359H775.516C786.714 18.3359 794.982 20.4193 800.32 24.5859C806.57 29.6641 809.695 38.5833 809.695 51.3438V258.766C803.055 264.885 795.307 269.573 786.453 272.828C777.729 275.953 768.745 277.516 759.5 277.516C744.266 277.516 731.896 273.87 722.391 266.578C711.583 258.375 706.18 246.396 706.18 230.641V151.344Z"/>
</mask>
<path d="M706.18 151.344C713.862 151.344 720.698 150.628 726.688 149.195C732.677 147.763 735.672 145.615 735.672 142.75C735.672 140.927 735.086 139.43 733.914 138.258C725.971 141.122 717.312 142.555 707.938 142.555C695.177 142.555 684.435 138.193 675.711 129.469C666.987 120.615 662.625 107.919 662.625 91.3828C662.625 80.4453 664.904 69.8333 669.461 59.5469C685.867 57.5938 698.628 54.3385 707.742 49.7812C720.503 43.2708 731.44 32.7891 740.555 18.3359H775.516C786.714 18.3359 794.982 20.4193 800.32 24.5859C806.57 29.6641 809.695 38.5833 809.695 51.3438V258.766C803.055 264.885 795.307 269.573 786.453 272.828C777.729 275.953 768.745 277.516 759.5 277.516C744.266 277.516 731.896 273.87 722.391 266.578C711.583 258.375 706.18 246.396 706.18 230.641V151.344Z" fill="#A5CE89"/>
<path d="M706.18 151.344V143.344H698.18V151.344H706.18ZM726.688 149.195L724.827 141.415L726.688 149.195ZM733.914 138.258L739.571 132.601L735.979 129.009L731.2 130.732L733.914 138.258ZM675.711 129.469L670.012 135.084L670.033 135.105L670.054 135.126L675.711 129.469ZM669.461 59.5469L668.515 51.603L663.992 52.1415L662.147 56.3064L669.461 59.5469ZM707.742 49.7812L711.32 56.9367L711.349 56.9221L711.378 56.9073L707.742 49.7812ZM740.555 18.3359V10.3359H736.142L733.788 14.0686L740.555 18.3359ZM800.32 24.5859L805.365 18.377L805.304 18.3276L805.242 18.2794L800.32 24.5859ZM809.695 258.766L815.117 264.648L817.695 262.272V258.766H809.695ZM786.453 272.828L789.151 280.36L789.182 280.348L789.214 280.337L786.453 272.828ZM722.391 266.578L727.26 260.231L727.244 260.218L727.227 260.206L722.391 266.578ZM706.18 159.344C714.342 159.344 721.821 158.585 728.548 156.976L724.827 141.415C719.575 142.671 713.382 143.344 706.18 143.344V159.344ZM728.548 156.976C731.965 156.159 735.369 154.961 738.089 153.01C741.016 150.91 743.672 147.482 743.672 142.75H727.672C727.672 141.992 727.891 141.25 728.243 140.661C728.558 140.134 728.845 139.95 728.763 140.009C728.675 140.072 728.352 140.278 727.656 140.555C726.973 140.828 726.045 141.123 724.827 141.415L728.548 156.976ZM743.672 142.75C743.672 139.038 742.4 135.43 739.571 132.601L728.257 143.915C728.087 143.745 727.904 143.486 727.782 143.175C727.667 142.879 727.672 142.704 727.672 142.75H743.672ZM731.2 130.732C724.218 133.25 716.489 134.555 707.938 134.555V150.555C718.136 150.555 727.724 148.995 736.628 145.783L731.2 130.732ZM707.938 134.555C697.218 134.555 688.535 130.979 681.368 123.812L670.054 135.126C680.335 145.406 693.137 150.555 707.938 150.555V134.555ZM681.41 123.854C674.596 116.939 670.625 106.534 670.625 91.3828H654.625C654.625 109.304 659.378 124.29 670.012 135.084L681.41 123.854ZM670.625 91.3828C670.625 81.5938 672.657 72.0833 676.775 62.7874L662.147 56.3064C657.151 67.5833 654.625 79.2968 654.625 91.3828H670.625ZM670.407 67.4908C687.233 65.4877 701.028 62.0828 711.32 56.9367L704.164 42.6258C696.228 46.5943 684.502 49.6998 668.515 51.603L670.407 67.4908ZM711.378 56.9073C725.648 49.6269 737.588 38.0376 747.321 22.6033L733.788 14.0686C725.292 27.5405 715.357 36.9148 704.106 42.6552L711.378 56.9073ZM740.555 26.3359H775.516V10.3359H740.555V26.3359ZM775.516 26.3359C785.999 26.3359 792.124 28.3372 795.398 30.8925L805.242 18.2794C797.839 12.5014 787.428 10.3359 775.516 10.3359V26.3359ZM795.276 30.7948C798.785 33.6464 801.695 39.5854 801.695 51.3438H817.695C817.695 37.5813 814.355 25.6817 805.365 18.377L795.276 30.7948ZM801.695 51.3438V258.766H817.695V51.3438H801.695ZM804.274 252.883C798.439 258.26 791.607 262.41 783.693 265.319L789.214 280.337C799.008 276.736 807.67 271.511 815.117 264.648L804.274 252.883ZM783.755 265.297C775.895 268.112 767.823 269.516 759.5 269.516V285.516C769.667 285.516 779.563 283.794 789.151 280.36L783.755 265.297ZM759.5 269.516C745.542 269.516 735.027 266.189 727.26 260.231L717.521 272.926C728.764 281.55 742.989 285.516 759.5 285.516V269.516ZM727.227 260.206C718.751 253.772 714.18 244.351 714.18 230.641H698.18C698.18 248.441 704.416 262.978 717.554 272.95L727.227 260.206ZM714.18 230.641V151.344H698.18V230.641H714.18Z" fill="white" mask="url(#path-3-outside-1_924_648)"/>
<mask id="path-5-outside-2_924_648" maskUnits="userSpaceOnUse" x="398" y="33" width="260" height="286" fill="black">
<rect fill="white" x="398" y="33" width="260" height="286"/>
<path d="M538.609 310.19C498.407 310.19 466.323 297.82 442.356 273.081C418.545 248.186 406.639 214.865 406.639 173.117C406.639 131.369 420.168 98.3573 447.227 74.0815C471.348 52.4344 501.5 41.6108 537.681 41.6108C569.843 41.6108 596.515 49.5739 617.698 65.5C638.882 81.2715 649.473 102.764 649.473 129.978C649.473 148.841 643.597 164.226 631.846 176.132C620.25 187.884 604.942 193.759 585.923 193.759C570.461 193.759 557.55 189.662 547.19 181.467C536.985 173.117 530.955 162.294 529.1 148.996C522.296 148.996 518.895 151.47 518.895 156.418C518.895 167.705 524.461 178.065 535.594 187.497C548.427 198.63 564.354 204.196 583.372 204.196C602.545 204.196 618.394 200.099 630.918 191.904C638.65 203.81 642.515 218.267 642.515 235.275C642.515 255.067 634.011 271.998 617.002 286.069C597.52 302.15 571.389 310.19 538.609 310.19Z"/>
</mask>
<path d="M538.609 310.19C498.407 310.19 466.323 297.82 442.356 273.081C418.545 248.186 406.639 214.865 406.639 173.117C406.639 131.369 420.168 98.3573 447.227 74.0815C471.348 52.4344 501.5 41.6108 537.681 41.6108C569.843 41.6108 596.515 49.5739 617.698 65.5C638.882 81.2715 649.473 102.764 649.473 129.978C649.473 148.841 643.597 164.226 631.846 176.132C620.25 187.884 604.942 193.759 585.923 193.759C570.461 193.759 557.55 189.662 547.19 181.467C536.985 173.117 530.955 162.294 529.1 148.996C522.296 148.996 518.895 151.47 518.895 156.418C518.895 167.705 524.461 178.065 535.594 187.497C548.427 198.63 564.354 204.196 583.372 204.196C602.545 204.196 618.394 200.099 630.918 191.904C638.65 203.81 642.515 218.267 642.515 235.275C642.515 255.067 634.011 271.998 617.002 286.069C597.52 302.15 571.389 310.19 538.609 310.19Z" fill="#87CEFA"/>
<path d="M442.356 273.081L436.575 278.61L436.593 278.629L436.611 278.647L442.356 273.081ZM447.227 74.0815L452.569 80.0363L452.57 80.0355L447.227 74.0815ZM617.698 65.5L612.891 71.8944L612.906 71.9056L612.921 71.9168L617.698 65.5ZM631.846 176.132L626.152 170.513L626.152 170.513L631.846 176.132ZM547.19 181.467L542.125 187.658L542.176 187.7L542.227 187.741L547.19 181.467ZM529.1 148.996L537.023 147.891L536.061 140.996H529.1V148.996ZM535.594 187.497L540.836 181.454L540.801 181.423L540.765 181.393L535.594 187.497ZM630.918 191.904L637.628 187.547L633.256 180.814L626.538 185.21L630.918 191.904ZM617.002 286.069L622.095 292.239L622.102 292.233L617.002 286.069ZM538.609 302.19C500.18 302.19 470.309 290.437 448.102 267.514L436.611 278.647C462.337 305.203 496.634 318.19 538.609 318.19V302.19ZM448.138 267.551C426.04 244.449 414.639 213.268 414.639 173.117H398.639C398.639 216.463 411.049 251.924 436.575 278.61L448.138 267.551ZM414.639 173.117C414.639 133.269 427.461 102.563 452.569 80.0363L441.885 68.1267C412.876 94.152 398.639 129.469 398.639 173.117H414.639ZM452.57 80.0355C475.049 59.8619 503.225 49.6108 537.681 49.6108V33.6108C499.774 33.6108 467.647 45.0069 441.884 68.1276L452.57 80.0355ZM537.681 49.6108C568.488 49.6108 593.369 57.2175 612.891 71.8944L622.506 59.1056C599.661 41.9303 571.197 33.6108 537.681 33.6108V49.6108ZM612.921 71.9168C632.005 86.1254 641.473 105.201 641.473 129.978H657.473C657.473 100.327 645.758 76.4176 622.476 59.0832L612.921 71.9168ZM641.473 129.978C641.473 147.03 636.233 160.3 626.152 170.513L637.54 181.752C650.962 168.153 657.473 150.653 657.473 129.978H641.473ZM626.152 170.513C616.29 180.507 603.155 185.759 585.923 185.759V201.759C606.729 201.759 624.209 195.26 637.54 181.752L626.152 170.513ZM585.923 185.759C571.942 185.759 560.868 182.086 552.154 175.193L542.227 187.741C554.232 197.238 568.98 201.759 585.923 201.759V185.759ZM552.256 175.275C543.641 168.226 538.606 159.234 537.023 147.891L521.176 150.102C523.305 165.353 530.33 178.008 542.125 187.658L552.256 175.275ZM529.1 140.996C524.966 140.996 520.421 141.705 516.74 144.382C512.587 147.403 510.895 151.898 510.895 156.418H526.895C526.895 156.092 526.95 156.188 526.805 156.504C526.64 156.864 526.376 157.158 526.151 157.321C525.974 157.45 526.017 157.357 526.52 157.235C527.028 157.112 527.858 156.996 529.1 156.996V140.996ZM510.895 156.418C510.895 170.707 518.059 183.126 530.422 193.601L540.765 181.393C530.863 173.004 526.895 164.704 526.895 156.418H510.895ZM530.352 193.54C544.816 206.088 562.674 212.196 583.372 212.196V196.196C566.033 196.196 552.039 191.172 540.836 181.454L530.352 193.54ZM583.372 212.196C603.668 212.196 621.151 207.855 635.299 198.598L626.538 185.21C615.637 192.343 601.423 196.196 583.372 196.196V212.196ZM624.209 196.261C630.943 206.632 634.515 219.503 634.515 235.275H650.515C650.515 217.031 646.356 200.988 637.628 187.547L624.209 196.261ZM634.515 235.275C634.515 252.389 627.314 267.156 611.903 279.905L622.102 292.233C640.708 276.84 650.515 257.745 650.515 235.275H634.515ZM611.91 279.899C594.241 294.483 570.091 302.19 538.609 302.19V318.19C572.686 318.19 600.799 309.816 622.095 292.239L611.91 279.899Z" fill="white" mask="url(#path-5-outside-2_924_648)"/>
<mask id="path-7-outside-3_924_648" maskUnits="userSpaceOnUse" x="210" y="18" width="224" height="289" fill="black">
<rect fill="white" x="210" y="18" width="224" height="289"/>
<path d="M323.173 134.123V158.659C324.027 159.514 325.431 159.941 327.384 159.941C329.337 159.941 330.741 159.27 331.596 157.927C332.45 156.584 332.877 154.265 332.877 150.969V132.292C332.877 120.573 332.389 112.822 331.413 109.038C330.436 105.131 328.605 103.178 325.919 103.178C324.21 103.178 322.746 103.789 321.525 105.009C322.624 117.094 323.173 126.799 323.173 134.123ZM264.762 55.2046C264.762 58.8667 266.898 60.6978 271.171 60.6978C278.495 49.2231 287.101 40.7393 296.989 35.2461C306.876 29.6309 318.778 26.8232 332.694 26.8232C346.61 26.8232 359.306 29.0205 370.78 33.415C386.527 39.6406 398.979 49.6504 408.134 63.4443C419.608 80.9004 425.346 103.789 425.346 132.109C425.346 163.969 416.801 188.75 399.711 206.45C382.743 224.028 359.184 232.817 329.032 232.817C312.187 232.817 299.064 230.742 289.665 226.591C288.81 227.08 288.383 228.117 288.383 229.704C288.383 233.366 291.19 235.991 296.806 237.578C302.543 239.165 312.37 240.324 326.286 241.057V289.763C313.712 295.378 299.918 298.186 284.904 298.186C267.204 298.186 253.837 294.951 244.804 288.481C234.55 281.523 229.423 270.842 229.423 256.438V109.038C222.221 98.9058 218.62 86.3325 218.62 71.3179C218.62 65.2144 219.596 58.5615 221.549 51.3594C223.502 44.1572 226.127 37.9927 229.423 32.8657H255.424C266.044 32.8657 274.162 34.3306 279.777 37.2603C269.767 44.7065 264.762 50.688 264.762 55.2046Z"/>
</mask>
<path d="M323.173 134.123V158.659C324.027 159.514 325.431 159.941 327.384 159.941C329.337 159.941 330.741 159.27 331.596 157.927C332.45 156.584 332.877 154.265 332.877 150.969V132.292C332.877 120.573 332.389 112.822 331.413 109.038C330.436 105.131 328.605 103.178 325.919 103.178C324.21 103.178 322.746 103.789 321.525 105.009C322.624 117.094 323.173 126.799 323.173 134.123ZM264.762 55.2046C264.762 58.8667 266.898 60.6978 271.171 60.6978C278.495 49.2231 287.101 40.7393 296.989 35.2461C306.876 29.6309 318.778 26.8232 332.694 26.8232C346.61 26.8232 359.306 29.0205 370.78 33.415C386.527 39.6406 398.979 49.6504 408.134 63.4443C419.608 80.9004 425.346 103.789 425.346 132.109C425.346 163.969 416.801 188.75 399.711 206.45C382.743 224.028 359.184 232.817 329.032 232.817C312.187 232.817 299.064 230.742 289.665 226.591C288.81 227.08 288.383 228.117 288.383 229.704C288.383 233.366 291.19 235.991 296.806 237.578C302.543 239.165 312.37 240.324 326.286 241.057V289.763C313.712 295.378 299.918 298.186 284.904 298.186C267.204 298.186 253.837 294.951 244.804 288.481C234.55 281.523 229.423 270.842 229.423 256.438V109.038C222.221 98.9058 218.62 86.3325 218.62 71.3179C218.62 65.2144 219.596 58.5615 221.549 51.3594C223.502 44.1572 226.127 37.9927 229.423 32.8657H255.424C266.044 32.8657 274.162 34.3306 279.777 37.2603C269.767 44.7065 264.762 50.688 264.762 55.2046Z" fill="#FFD700"/>
<path d="M323.173 158.659H315.173V161.973L317.516 164.316L323.173 158.659ZM331.413 109.038L323.651 110.978L323.659 111.007L323.666 111.037L331.413 109.038ZM321.525 105.009L315.868 99.3524L313.219 102.002L313.558 105.734L321.525 105.009ZM271.171 60.6978V68.6978H275.555L277.914 65.002L271.171 60.6978ZM296.989 35.2461L300.874 42.2394L300.907 42.2211L300.939 42.2026L296.989 35.2461ZM370.78 33.415L373.722 25.9754L373.682 25.9596L373.641 25.9442L370.78 33.415ZM408.134 63.4443L414.819 59.05L414.809 59.0351L414.799 59.0204L408.134 63.4443ZM399.711 206.45L393.956 200.893L393.955 200.894L399.711 206.45ZM289.665 226.591L292.896 219.273L289.202 217.642L285.695 219.645L289.665 226.591ZM296.806 237.578L294.63 245.276L294.651 245.282L294.673 245.288L296.806 237.578ZM326.286 241.057H334.286V233.467L326.706 233.068L326.286 241.057ZM326.286 289.763L329.548 297.067L334.286 294.951V289.763H326.286ZM244.804 288.481L249.462 281.977L249.38 281.918L249.296 281.861L244.804 288.481ZM229.423 109.038H237.423V106.484L235.943 104.403L229.423 109.038ZM229.423 32.8657V24.8657H225.055L222.693 28.5397L229.423 32.8657ZM279.777 37.2603L284.552 43.679L294.784 36.0669L283.477 30.1676L279.777 37.2603ZM315.173 134.123V158.659H331.173V134.123H315.173ZM317.516 164.316C320.57 167.37 324.562 167.941 327.384 167.941V151.941C326.953 151.941 326.94 151.889 327.196 151.967C327.483 152.055 328.149 152.322 328.83 153.002L317.516 164.316ZM327.384 167.941C331.358 167.941 335.675 166.417 338.345 162.222L324.846 153.632C325.204 153.07 325.769 152.546 326.45 152.22C327.065 151.926 327.463 151.941 327.384 151.941V167.941ZM338.345 162.222C340.514 158.813 340.877 154.469 340.877 150.969H324.877C324.877 152.306 324.788 153.196 324.689 153.731C324.581 154.322 324.522 154.141 324.846 153.632L338.345 162.222ZM340.877 150.969V132.292H324.877V150.969H340.877ZM340.877 132.292C340.877 120.75 340.432 111.97 339.159 107.039L323.666 111.037C324.347 113.673 324.877 120.397 324.877 132.292H340.877ZM339.174 107.097C338.509 104.437 337.344 101.52 335.143 99.1715C332.71 96.5761 329.466 95.1782 325.919 95.1782V111.178C325.599 111.178 325.125 111.115 324.598 110.887C324.071 110.659 323.696 110.355 323.471 110.115C323.264 109.894 323.235 109.785 323.305 109.931C323.376 110.079 323.508 110.405 323.651 110.978L339.174 107.097ZM325.919 95.1782C322.065 95.1782 318.572 96.6486 315.868 99.3524L327.182 110.666C327.119 110.729 326.93 110.89 326.616 111.021C326.3 111.152 326.039 111.178 325.919 111.178V95.1782ZM313.558 105.734C314.647 117.712 315.173 127.146 315.173 134.123H331.173C331.173 126.452 330.6 116.477 329.492 104.285L313.558 105.734ZM256.762 55.2046C256.762 58.6185 257.816 62.5336 261.158 65.3985C264.264 68.0612 268.077 68.6978 271.171 68.6978V52.6978C269.992 52.6978 270.601 52.4188 271.571 53.2504C272.084 53.6906 272.432 54.2279 272.619 54.7083C272.787 55.1403 272.762 55.3604 272.762 55.2046H256.762ZM277.914 65.002C284.668 54.4205 292.362 46.9683 300.874 42.2394L293.104 28.2528C281.84 34.5102 272.322 44.0258 264.428 56.3935L277.914 65.002ZM300.939 42.2026C309.381 37.4088 319.855 34.8232 332.694 34.8232V18.8232C317.701 18.8232 304.372 21.8529 293.038 28.2896L300.939 42.2026ZM332.694 34.8232C345.761 34.8232 357.471 36.8844 367.919 40.8859L373.641 25.9442C361.141 21.1566 347.46 18.8232 332.694 18.8232V34.8232ZM367.839 40.8547C382.103 46.4939 393.239 55.4693 401.468 67.8683L414.799 59.0204C404.718 43.8315 390.952 32.7874 373.722 25.9754L367.839 40.8547ZM401.449 67.8387C411.81 83.6014 417.346 104.81 417.346 132.109H433.346C433.346 102.767 427.407 78.1993 414.819 59.05L401.449 67.8387ZM417.346 132.109C417.346 162.531 409.218 185.086 393.956 200.893L405.466 212.006C424.384 192.413 433.346 165.408 433.346 132.109H417.346ZM393.955 200.894C378.834 216.559 357.555 224.817 329.032 224.817V240.817C360.812 240.817 386.652 231.497 405.467 212.006L393.955 200.894ZM329.032 224.817C312.676 224.817 300.83 222.776 292.896 219.273L286.433 233.91C297.298 238.707 311.697 240.817 329.032 240.817V224.817ZM285.695 219.645C281.073 222.287 280.383 227.103 280.383 229.704H296.383C296.383 229.555 296.413 230.022 296.101 230.782C295.737 231.666 294.964 232.777 293.634 233.537L285.695 219.645ZM280.383 229.704C280.383 233.871 282.093 237.522 285.025 240.263C287.72 242.783 291.176 244.3 294.63 245.276L298.981 229.879C297.951 229.588 297.21 229.294 296.698 229.037C296.185 228.781 295.982 228.603 295.952 228.575C295.939 228.563 296.081 228.697 296.214 228.994C296.35 229.299 296.383 229.568 296.383 229.704H280.383ZM294.673 245.288C301.331 247.13 311.933 248.312 325.865 249.046L326.706 233.068C312.807 232.336 303.755 231.199 298.938 229.867L294.673 245.288ZM318.286 241.057V289.763H334.286V241.057H318.286ZM323.023 282.458C311.566 287.575 298.897 290.186 284.904 290.186V306.186C300.94 306.186 315.858 303.181 329.548 297.067L323.023 282.458ZM284.904 290.186C267.96 290.186 256.546 287.051 249.462 281.977L240.145 294.985C251.128 302.851 266.447 306.186 284.904 306.186V290.186ZM249.296 281.861C241.618 276.651 237.423 268.688 237.423 256.438H221.423C221.423 272.995 227.481 286.394 240.312 295.101L249.296 281.861ZM237.423 256.438V109.038H221.423V256.438H237.423ZM235.943 104.403C229.889 95.8859 226.62 85.0235 226.62 71.3179H210.62C210.62 87.6415 214.552 101.926 222.902 113.673L235.943 104.403ZM226.62 71.3179C226.62 66.0579 227.463 60.1183 229.27 53.4532L213.828 49.2655C211.729 57.0047 210.62 64.3708 210.62 71.3179H226.62ZM229.27 53.4532C231.055 46.8711 233.386 41.4955 236.152 37.1918L222.693 28.5397C218.868 34.4898 215.949 41.4434 213.828 49.2655L229.27 53.4532ZM229.423 40.8657H255.424V24.8657H229.423V40.8657ZM255.424 40.8657C265.521 40.8657 272.13 42.2939 276.076 44.3529L283.477 30.1676C276.193 26.3672 266.567 24.8657 255.424 24.8657V40.8657ZM275.002 30.8415C269.756 34.7441 265.45 38.5286 262.38 42.1973C259.468 45.6775 256.762 50.1213 256.762 55.2046H272.762C272.762 55.7713 272.558 54.9661 274.651 52.4648C276.587 50.1521 279.788 47.2227 284.552 43.679L275.002 30.8415Z" fill="white" mask="url(#path-7-outside-3_924_648)"/>
<mask id="path-9-outside-4_924_648" maskUnits="userSpaceOnUse" x="-4" y="10" width="227" height="311" fill="black">
<rect fill="white" x="-4" y="10" width="227" height="311"/>
<path d="M214.893 205.585C214.893 236.493 205.078 261.615 185.449 280.951C164.648 301.752 135.938 312.152 99.3164 312.152C78.3691 312.152 58.5205 306.732 39.7705 295.893C25.415 287.689 14.502 278.241 7.03125 267.548C5.56641 258.612 4.83398 250.482 4.83398 243.158C4.83398 219.281 12.085 200.971 26.5869 188.227C38.3057 177.973 52.7344 172.846 69.873 172.846C82.9102 172.846 94.7754 176.288 105.469 183.173C116.309 190.497 124.292 200.604 129.419 213.495C134.106 213.495 136.45 211.078 136.45 206.244C136.45 203.754 135.352 200.458 133.154 196.356C131.104 192.255 128.101 188.153 124.146 184.052C113.745 173.358 101.221 166.767 86.5723 164.276V37.7139C93.8965 32.2939 103.125 27.7529 114.258 24.0908C125.391 20.4287 138.062 18.5977 152.271 18.5977C166.479 18.5977 179.297 21.0879 190.723 26.0684C206.836 33.3926 214.893 44.3789 214.893 59.0273V205.585Z"/>
</mask>
<path d="M214.893 205.585C214.893 236.493 205.078 261.615 185.449 280.951C164.648 301.752 135.938 312.152 99.3164 312.152C78.3691 312.152 58.5205 306.732 39.7705 295.893C25.415 287.689 14.502 278.241 7.03125 267.548C5.56641 258.612 4.83398 250.482 4.83398 243.158C4.83398 219.281 12.085 200.971 26.5869 188.227C38.3057 177.973 52.7344 172.846 69.873 172.846C82.9102 172.846 94.7754 176.288 105.469 183.173C116.309 190.497 124.292 200.604 129.419 213.495C134.106 213.495 136.45 211.078 136.45 206.244C136.45 203.754 135.352 200.458 133.154 196.356C131.104 192.255 128.101 188.153 124.146 184.052C113.745 173.358 101.221 166.767 86.5723 164.276V37.7139C93.8965 32.2939 103.125 27.7529 114.258 24.0908C125.391 20.4287 138.062 18.5977 152.271 18.5977C166.479 18.5977 179.297 21.0879 190.723 26.0684C206.836 33.3926 214.893 44.3789 214.893 59.0273V205.585Z" fill="#FF6961"/>
<path d="M185.449 280.951L179.835 275.252L179.814 275.273L179.792 275.294L185.449 280.951ZM39.7705 295.893L43.7745 288.967L43.7571 288.957L43.7396 288.947L39.7705 295.893ZM7.03125 267.548L-0.863371 268.842L-0.568987 270.638L0.473177 272.13L7.03125 267.548ZM26.5869 188.227L21.3189 182.206L21.3124 182.212L21.306 182.217L26.5869 188.227ZM105.469 183.173L109.948 176.544L109.874 176.494L109.799 176.446L105.469 183.173ZM129.419 213.495L121.985 216.452L123.991 221.495H129.419V213.495ZM133.154 196.356L125.999 199.934L126.049 200.035L126.102 200.134L133.154 196.356ZM124.146 184.052L129.904 178.499L129.892 178.486L129.88 178.474L124.146 184.052ZM86.5723 164.276H78.5723V171.031L85.2315 172.163L86.5723 164.276ZM86.5723 37.7139L81.8135 31.2831L78.5723 33.6817V37.7139H86.5723ZM190.723 26.0684L194.033 18.7854L193.976 18.7597L193.919 18.7348L190.723 26.0684ZM206.893 205.585C206.893 234.636 197.745 257.609 179.835 275.252L191.063 286.65C212.411 265.622 222.893 238.35 222.893 205.585H206.893ZM179.792 275.294C160.84 294.246 134.365 304.152 99.3164 304.152V320.152C137.51 320.152 168.457 309.258 191.106 286.608L179.792 275.294ZM99.3164 304.152C79.824 304.152 61.3506 299.128 43.7745 288.967L35.7665 302.818C55.6905 314.337 76.9143 320.152 99.3164 320.152V304.152ZM43.7396 288.947C30.1451 281.178 20.2264 272.466 13.5893 262.966L0.473177 272.13C8.77748 284.016 20.685 294.201 35.8014 302.839L43.7396 288.947ZM14.9259 266.254C13.5155 257.65 12.834 249.962 12.834 243.158H-3.16602C-3.16602 251.003 -2.38267 259.574 -0.863371 268.842L14.9259 266.254ZM12.834 243.158C12.834 220.992 19.4927 205.111 31.8678 194.236L21.306 182.217C4.67719 196.83 -3.16602 217.57 -3.16602 243.158H12.834ZM31.855 194.247C41.9647 185.401 54.4622 180.846 69.873 180.846V164.846C51.0066 164.846 34.6466 170.544 21.3189 182.206L31.855 194.247ZM69.873 180.846C81.415 180.846 91.7699 183.868 101.138 189.899L109.799 176.446C97.7809 168.708 84.4053 164.846 69.873 164.846V180.846ZM100.99 189.802C110.416 196.171 117.414 204.959 121.985 216.452L136.853 210.539C131.17 196.25 122.201 184.824 109.948 176.544L100.99 189.802ZM129.419 221.495C133.059 221.495 137.244 220.542 140.436 217.252C143.582 214.006 144.45 209.834 144.45 206.244H128.45C128.45 206.831 128.376 207.025 128.399 206.956C128.432 206.851 128.576 206.498 128.949 206.113C129.327 205.723 129.709 205.54 129.894 205.476C130.038 205.427 129.926 205.495 129.419 205.495V221.495ZM144.45 206.244C144.45 201.728 142.573 196.997 140.206 192.579L126.102 200.134C128.13 203.919 128.45 205.779 128.45 206.244H144.45ZM140.31 192.779C137.821 187.801 134.292 183.049 129.904 178.499L118.387 189.605C121.909 193.258 124.386 196.709 125.999 199.934L140.31 192.779ZM129.88 178.474C118.302 166.57 104.241 159.165 87.913 156.39L85.2315 172.163C98.2004 174.368 109.188 180.147 118.411 189.63L129.88 178.474ZM94.5723 164.276V37.7139H78.5723V164.276H94.5723ZM91.331 44.1446C97.8053 39.3536 106.215 35.158 116.758 31.6902L111.758 16.4914C100.035 20.3478 89.9877 25.2343 81.8135 31.2831L91.331 44.1446ZM116.758 31.6902C126.933 28.3429 138.737 26.5977 152.271 26.5977V10.5977C137.386 10.5977 123.848 12.5145 111.758 16.4914L116.758 31.6902ZM152.271 26.5977C165.533 26.5977 177.24 28.9185 187.526 33.4019L193.919 18.7348C181.353 13.2573 167.426 10.5977 152.271 10.5977V26.5977ZM187.412 33.3513C194.584 36.6112 199.389 40.4274 202.399 44.5322C205.344 48.5478 206.893 53.2691 206.893 59.0273H222.893C222.893 50.1371 220.413 42.0411 215.301 35.0704C210.255 28.1888 202.975 22.8498 194.033 18.7854L187.412 33.3513ZM206.893 59.0273V205.585H222.893V59.0273H206.893Z" fill="white" mask="url(#path-9-outside-4_924_648)"/>
<mask id="path-11-outside-5_924_648" maskUnits="userSpaceOnUse" x="813" y="44" width="239" height="279" fill="black">
<rect fill="white" x="813" y="44" width="239" height="279"/>
<path d="M934.969 210.219C930.021 210.219 926.115 211 923.25 212.562C923.25 216.99 924.487 220.57 926.961 223.305C929.565 226.039 933.016 227.406 937.312 227.406C943.953 227.406 947.273 224.737 947.273 219.398C947.273 213.279 943.172 210.219 934.969 210.219ZM1023.45 87.9531C1023.45 97.9792 1022.14 107.81 1019.54 117.445C1016.93 127.081 1013.09 135.089 1008.02 141.469C993.693 134.828 977.547 131.508 959.578 131.508C947.859 131.508 937.378 133.135 928.133 136.391C918.888 139.516 914.266 142.966 914.266 146.742C914.266 148.305 914.721 149.737 915.633 151.039C931.648 143.878 946.297 140.297 959.578 140.297C987.964 140.297 1009.45 148.565 1024.03 165.102C1036.92 179.945 1043.37 199.411 1043.37 223.5C1043.37 251.755 1032.62 274.346 1011.14 291.273C991.479 306.638 967.846 314.32 940.242 314.32C906.518 314.32 878.849 303.904 857.234 283.07C833.276 260.154 821.297 228.253 821.297 187.367C821.297 163.799 825.724 141.859 834.578 121.547C843.562 101.104 857.104 84.6979 875.203 72.3281C894.865 59.1771 918.172 52.6016 945.125 52.6016C979.76 52.6016 1005.8 60.6094 1023.25 76.625C1023.38 77.6667 1023.45 79.5547 1023.45 82.2891V87.9531Z"/>
</mask>
<path d="M934.969 210.219C930.021 210.219 926.115 211 923.25 212.562C923.25 216.99 924.487 220.57 926.961 223.305C929.565 226.039 933.016 227.406 937.312 227.406C943.953 227.406 947.273 224.737 947.273 219.398C947.273 213.279 943.172 210.219 934.969 210.219ZM1023.45 87.9531C1023.45 97.9792 1022.14 107.81 1019.54 117.445C1016.93 127.081 1013.09 135.089 1008.02 141.469C993.693 134.828 977.547 131.508 959.578 131.508C947.859 131.508 937.378 133.135 928.133 136.391C918.888 139.516 914.266 142.966 914.266 146.742C914.266 148.305 914.721 149.737 915.633 151.039C931.648 143.878 946.297 140.297 959.578 140.297C987.964 140.297 1009.45 148.565 1024.03 165.102C1036.92 179.945 1043.37 199.411 1043.37 223.5C1043.37 251.755 1032.62 274.346 1011.14 291.273C991.479 306.638 967.846 314.32 940.242 314.32C906.518 314.32 878.849 303.904 857.234 283.07C833.276 260.154 821.297 228.253 821.297 187.367C821.297 163.799 825.724 141.859 834.578 121.547C843.562 101.104 857.104 84.6979 875.203 72.3281C894.865 59.1771 918.172 52.6016 945.125 52.6016C979.76 52.6016 1005.8 60.6094 1023.25 76.625C1023.38 77.6667 1023.45 79.5547 1023.45 82.2891V87.9531Z" fill="#A5CE89"/>
<path d="M923.25 212.562L919.419 205.539L915.25 207.813V212.562H923.25ZM926.961 223.305L921.029 228.672L921.097 228.748L921.168 228.822L926.961 223.305ZM1019.54 117.445L1027.26 119.533L1019.54 117.445ZM1008.02 141.469L1004.65 148.727L1010.36 151.373L1014.28 146.451L1008.02 141.469ZM928.133 136.391L930.695 143.969L930.742 143.953L930.79 143.937L928.133 136.391ZM915.633 151.039L909.079 155.627L912.867 161.039L918.898 158.342L915.633 151.039ZM1024.03 165.102L1030.07 159.856L1030.05 159.833L1030.03 159.81L1024.03 165.102ZM1011.14 291.273L1016.07 297.577L1016.08 297.567L1016.09 297.557L1011.14 291.273ZM857.234 283.07L862.786 277.31L862.775 277.3L862.764 277.289L857.234 283.07ZM834.578 121.547L827.254 118.328L827.249 118.339L827.245 118.35L834.578 121.547ZM875.203 72.3281L870.755 65.6785L870.722 65.7008L870.689 65.7233L875.203 72.3281ZM1023.25 76.625L1031.19 75.6327L1030.82 72.7179L1028.66 70.7314L1023.25 76.625ZM934.969 202.219C929.316 202.219 923.912 203.089 919.419 205.539L927.081 219.586C928.317 218.911 930.725 218.219 934.969 218.219V202.219ZM915.25 212.562C915.25 218.554 916.967 224.183 921.029 228.672L932.893 217.937C932.007 216.958 931.25 215.425 931.25 212.562H915.25ZM921.168 228.822C925.496 233.367 931.157 235.406 937.312 235.406V219.406C934.874 219.406 933.634 218.712 932.754 217.787L921.168 228.822ZM937.312 235.406C941.494 235.406 946.113 234.6 949.796 231.639C953.812 228.41 955.273 223.82 955.273 219.398H939.273C939.273 219.918 939.192 220.005 939.261 219.838C939.351 219.622 939.536 219.358 939.771 219.169C939.969 219.01 939.992 219.073 939.6 219.178C939.191 219.288 938.463 219.406 937.312 219.406V235.406ZM955.273 219.398C955.273 214.371 953.464 209.446 948.981 206.101C944.938 203.085 939.833 202.219 934.969 202.219V218.219C936.548 218.219 937.668 218.369 938.421 218.556C938.789 218.647 939.04 218.741 939.198 218.812C939.277 218.847 939.331 218.876 939.365 218.895C939.382 218.905 939.394 218.913 939.402 218.918C939.41 218.923 939.413 218.926 939.414 218.926C939.414 218.926 939.41 218.924 939.405 218.919C939.399 218.914 939.39 218.906 939.38 218.897C939.36 218.877 939.335 218.851 939.309 218.818C939.253 218.748 939.217 218.684 939.2 218.646C939.166 218.569 939.273 218.754 939.273 219.398H955.273ZM1015.45 87.9531C1015.45 97.2775 1014.24 106.406 1011.82 115.358L1027.26 119.533C1030.05 109.214 1031.45 98.6809 1031.45 87.9531H1015.45ZM1011.82 115.358C1009.43 124.169 1006.02 131.13 1001.76 136.487L1014.28 146.451C1020.17 139.047 1024.43 129.992 1027.26 119.533L1011.82 115.358ZM1011.38 134.211C995.867 127.018 978.548 123.508 959.578 123.508V139.508C976.545 139.508 991.519 142.638 1004.65 148.727L1011.38 134.211ZM959.578 123.508C947.127 123.508 935.723 125.237 925.476 128.845L930.79 143.937C939.032 141.034 948.592 139.508 959.578 139.508V123.508ZM925.571 128.812C920.622 130.485 916.241 132.452 912.947 134.911C909.712 137.326 906.266 141.217 906.266 146.742H922.266C922.266 148.491 921.131 148.769 922.518 147.733C923.846 146.742 926.399 145.421 930.695 143.969L925.571 128.812ZM906.266 146.742C906.266 149.976 907.244 153.005 909.079 155.627L922.187 146.451C922.175 146.435 922.179 146.438 922.19 146.46C922.202 146.484 922.217 146.518 922.231 146.563C922.245 146.607 922.254 146.649 922.26 146.686C922.266 146.722 922.266 146.743 922.266 146.742H906.266ZM918.898 158.342C934.201 151.5 947.722 148.297 959.578 148.297V132.297C944.872 132.297 929.096 136.255 912.367 143.736L918.898 158.342ZM959.578 148.297C986.372 148.297 1005.38 156.044 1018.03 170.393L1030.03 159.81C1013.52 141.086 989.555 132.297 959.578 132.297V148.297ZM1017.99 170.347C1029.35 183.427 1035.37 200.887 1035.37 223.5H1051.37C1051.37 197.936 1044.49 176.464 1030.07 159.856L1017.99 170.347ZM1035.37 223.5C1035.37 249.398 1025.68 269.637 1006.19 284.99L1016.09 297.557C1039.57 279.056 1051.37 254.112 1051.37 223.5H1035.37ZM1006.21 284.97C988.11 299.118 966.262 306.32 940.242 306.32V322.32C969.431 322.32 994.848 314.158 1016.07 297.577L1006.21 284.97ZM940.242 306.32C908.312 306.32 882.721 296.525 862.786 277.31L851.683 288.83C874.977 311.282 904.725 322.32 940.242 322.32V306.32ZM862.764 277.289C840.738 256.22 829.297 226.613 829.297 187.367H813.297C813.297 229.892 825.814 264.087 851.705 288.851L862.764 277.289ZM829.297 187.367C829.297 164.828 833.525 143.984 841.912 124.744L827.245 118.35C817.923 139.734 813.297 162.771 813.297 187.367H829.297ZM841.902 124.766C850.296 105.665 862.877 90.4424 879.717 78.9329L870.689 65.7233C851.331 78.9534 836.829 96.5432 827.254 118.328L841.902 124.766ZM879.651 78.9777C897.819 66.8258 919.528 60.6016 945.125 60.6016V44.6016C916.816 44.6016 891.91 51.5284 870.755 65.6785L879.651 78.9777ZM945.125 60.6016C978.67 60.6016 1002.43 68.3692 1017.84 82.5186L1028.66 70.7314C1009.18 52.8495 980.851 44.6016 945.125 44.6016V60.6016ZM1015.31 77.6173C1015.37 78.1014 1015.45 79.5244 1015.45 82.2891H1031.45C1031.45 79.585 1031.39 77.232 1031.19 75.6327L1015.31 77.6173ZM1015.45 82.2891V87.9531H1031.45V82.2891H1015.45Z" fill="white" mask="url(#path-11-outside-5_924_648)"/>
<defs>
<clipPath id="clip0_924_648">
<rect x="684" y="323.65" width="481" height="70" rx="16" transform="rotate(-4.01166 684 323.65)" fill="white"/>
</clipPath>
</defs>
</svg>
