<svg width="1169" height="394" viewBox="0 0 1169 394" fill="none" xmlns="http://www.w3.org/2000/svg">
<g clip-path="url(#clip0_1232_637)">
<rect x="684" y="323.65" width="481" height="70" rx="16" transform="rotate(-4.01166 684 323.65)" fill="#87CEFA"/>
<path d="M727.091 343.745L728.132 358.588C728.2 359.546 728.101 360.435 727.838 361.256C727.594 362.055 727.192 362.755 726.632 363.355C726.071 363.936 725.373 364.416 724.538 364.795C723.721 365.153 722.774 365.37 721.696 365.446C720.659 365.518 719.731 365.443 718.914 365.22C718.116 364.995 717.41 364.643 716.795 364.165C716.2 363.686 715.697 363.099 715.288 362.406C714.879 361.713 714.573 360.933 714.372 360.065L718.563 358.929C719.029 360.721 719.961 361.567 721.357 361.47C722.016 361.423 722.56 361.175 722.989 360.724C723.439 360.271 723.632 359.596 723.569 358.698L722.799 347.715L716.454 348.16L716.198 344.509L727.091 343.745ZM742.136 361.035L741.986 361.045C741.874 361.454 741.711 361.846 741.497 362.222C741.303 362.597 741.036 362.936 740.696 363.241C740.357 363.545 739.943 363.795 739.456 363.99C738.988 364.183 738.435 364.302 737.797 364.346C736.181 364.46 734.917 364.017 734.004 363.019C733.111 361.999 732.594 360.491 732.454 358.496L731.762 348.62L736.191 348.31L736.856 357.796C736.923 358.754 737.145 359.48 737.52 359.975C737.896 360.47 738.493 360.689 739.31 360.631C739.65 360.608 739.985 360.534 740.318 360.41C740.65 360.287 740.939 360.126 741.186 359.929C741.431 359.711 741.624 359.457 741.764 359.166C741.904 358.876 741.961 358.541 741.934 358.162L741.218 347.957L745.648 347.646L746.749 363.358L742.32 363.668L742.136 361.035ZM751.12 363.051L750.018 347.34L754.447 347.029L754.634 349.693L754.813 349.68C755.035 348.842 755.474 348.1 756.131 347.452C756.787 346.805 757.734 346.438 758.971 346.351C760.587 346.238 761.842 346.691 762.735 347.711C763.649 348.73 764.175 350.236 764.315 352.232L765.006 362.077L760.577 362.388L759.911 352.901C759.84 351.884 759.628 351.147 759.275 350.69C758.921 350.214 758.335 350.004 757.517 350.062C757.158 350.087 756.812 350.161 756.48 350.285C756.146 350.389 755.847 350.55 755.581 350.769C755.336 350.987 755.144 351.251 755.005 351.561C754.865 351.852 754.809 352.187 754.835 352.566L755.549 362.741L751.12 363.051ZM770.192 344.241C769.294 344.304 768.621 344.15 768.175 343.781C767.746 343.39 767.51 342.875 767.465 342.237L767.419 341.578C767.374 340.94 767.537 340.407 767.908 339.98C768.298 339.532 768.941 339.276 769.839 339.213C770.737 339.15 771.4 339.314 771.828 339.705C772.275 340.075 772.521 340.579 772.566 341.217L772.612 341.876C772.657 342.514 772.485 343.058 772.095 343.506C771.724 343.933 771.089 344.178 770.192 344.241ZM768.095 346.072L772.524 345.761L773.626 361.473L769.197 361.783L768.095 346.072ZM784.408 361.078C783.251 361.159 782.2 361.042 781.256 360.727C780.332 360.411 779.525 359.916 778.836 359.243C778.168 358.568 777.628 357.734 777.217 356.74C776.807 355.746 776.557 354.621 776.469 353.364C776.381 352.107 776.471 350.958 776.739 349.917C777.007 348.875 777.425 347.984 777.995 347.242C778.583 346.479 779.312 345.877 780.184 345.435C781.075 344.991 782.099 344.729 783.256 344.648C784.413 344.567 785.454 344.684 786.378 345C787.323 345.315 788.129 345.81 788.798 346.485C789.486 347.138 790.035 347.962 790.445 348.956C790.856 349.949 791.105 351.075 791.193 352.331C791.281 353.588 791.191 354.737 790.924 355.779C790.656 356.82 790.228 357.722 789.64 358.485C789.072 359.247 788.342 359.849 787.451 360.293C786.58 360.735 785.566 360.996 784.408 361.078ZM784.163 357.576C785.041 357.515 785.7 357.198 786.141 356.625C786.582 356.053 786.768 355.268 786.698 354.271L786.473 351.069C786.403 350.071 786.11 349.32 785.593 348.815C785.077 348.309 784.38 348.088 783.502 348.149C782.624 348.211 781.964 348.528 781.523 349.1C781.082 349.672 780.897 350.457 780.967 351.455L781.191 354.657C781.261 355.654 781.555 356.406 782.071 356.911C782.588 357.416 783.285 357.638 784.163 357.576ZM795.15 359.963L794.048 344.252L798.478 343.941L798.717 347.353L798.866 347.342C798.916 346.898 799.026 346.469 799.197 346.056C799.367 345.623 799.601 345.236 799.898 344.894C800.215 344.551 800.596 344.274 801.042 344.062C801.487 343.83 802.019 343.693 802.637 343.65L803.415 343.595L803.705 347.725L802.598 347.802C801.301 347.893 800.345 348.131 799.731 348.515C799.136 348.897 798.871 349.547 798.935 350.465L799.579 359.653L795.15 359.963ZM815.06 358.567L813.595 337.678L823.471 336.986C824.449 336.917 825.338 337.025 826.14 337.31C826.941 337.574 827.631 337.977 828.21 338.518C828.809 339.057 829.288 339.736 829.646 340.552C830.002 341.349 830.215 342.237 830.283 343.214C830.353 344.212 830.267 345.13 830.026 345.969C829.784 346.808 829.404 347.537 828.886 348.154C828.387 348.771 827.761 349.276 827.007 349.669C826.251 350.043 825.385 350.264 824.407 350.333L819.08 350.707L819.609 358.248L815.06 358.567ZM818.803 346.756L823.591 346.42C824.27 346.373 824.786 346.166 825.142 345.8C825.516 345.413 825.679 344.881 825.631 344.202L825.539 342.885C825.491 342.207 825.256 341.712 824.833 341.401C824.429 341.069 823.888 340.926 823.209 340.974L818.421 341.31L818.803 346.756ZM834.417 357.209L833.315 341.498L837.744 341.187L837.984 344.599L838.133 344.589C838.182 344.144 838.293 343.715 838.464 343.302C838.634 342.869 838.868 342.482 839.165 342.14C839.481 341.797 839.863 341.52 840.309 341.308C840.754 341.077 841.286 340.939 841.904 340.896L842.682 340.841L842.972 344.971L841.865 345.049C840.568 345.14 839.612 345.377 838.997 345.761C838.403 346.144 838.138 346.794 838.202 347.711L838.846 356.899L834.417 357.209ZM853.019 356.266C851.862 356.347 850.811 356.23 849.867 355.915C848.943 355.599 848.136 355.105 847.447 354.431C846.778 353.756 846.239 352.922 845.828 351.928C845.418 350.935 845.168 349.809 845.08 348.552C844.992 347.295 845.082 346.146 845.35 345.105C845.617 344.064 846.036 343.172 846.606 342.431C847.194 341.668 847.923 341.065 848.794 340.623C849.686 340.18 850.71 339.917 851.867 339.836C853.024 339.755 854.065 339.872 854.989 340.189C855.934 340.503 856.74 340.998 857.409 341.673C858.096 342.326 858.645 343.15 859.056 344.144C859.466 345.137 859.716 346.263 859.804 347.52C859.892 348.777 859.802 349.926 859.534 350.967C859.267 352.008 858.839 352.91 858.251 353.673C857.682 354.435 856.953 355.038 856.062 355.481C855.19 355.923 854.176 356.185 853.019 356.266ZM852.774 352.764C853.651 352.703 854.311 352.386 854.752 351.814C855.193 351.241 855.379 350.456 855.309 349.459L855.084 346.257C855.014 345.259 854.721 344.508 854.204 344.003C853.688 343.498 852.99 343.276 852.112 343.338C851.235 343.399 850.575 343.716 850.134 344.288C849.693 344.861 849.508 345.645 849.578 346.643L849.802 349.845C849.872 350.843 850.165 351.594 850.682 352.099C851.199 352.604 851.896 352.826 852.774 352.764ZM878.385 355.269C878.444 356.107 878.346 356.855 878.092 357.515C877.857 358.173 877.426 358.744 876.798 359.229C876.172 359.734 875.318 360.135 874.236 360.432C873.176 360.747 871.847 360.96 870.251 361.072C868.895 361.167 867.731 361.159 866.761 361.046C865.812 360.952 865.027 360.767 864.406 360.489C863.807 360.231 863.351 359.882 863.04 359.443C862.749 359.022 862.584 358.522 862.543 357.944C862.482 357.066 862.693 356.359 863.177 355.824C863.66 355.289 864.357 354.929 865.266 354.745L865.243 354.416C864.475 354.33 863.884 354.05 863.47 353.578C863.055 353.086 862.823 352.501 862.776 351.822C862.746 351.403 862.801 351.039 862.94 350.728C863.097 350.396 863.297 350.112 863.541 349.874C863.804 349.615 864.11 349.403 864.459 349.238C864.808 349.073 865.16 348.938 865.513 348.833L865.505 348.714C864.517 348.342 863.766 347.793 863.254 347.067C862.741 346.321 862.448 345.44 862.377 344.422C862.265 342.826 862.724 341.511 863.754 340.476C864.803 339.42 866.465 338.812 868.739 338.653C869.777 338.58 870.671 338.618 871.424 338.765L871.382 338.167C871.323 337.329 871.48 336.716 871.854 336.329C872.247 335.921 872.822 335.69 873.58 335.637L876.064 335.463L876.295 338.755L872.823 338.998L872.836 339.178C873.784 339.552 874.505 340.113 874.999 340.86C875.491 341.588 875.773 342.46 875.844 343.478C875.955 345.054 875.485 346.36 874.435 347.396C873.403 348.41 871.75 348.998 869.476 349.157C868.458 349.228 867.523 349.184 866.669 349.023C866.232 349.354 866.032 349.79 866.069 350.328C866.096 350.707 866.257 350.997 866.551 351.197C866.865 351.375 867.36 351.441 868.039 351.393L872.587 351.074C874.503 350.94 875.917 351.242 876.831 351.979C877.765 352.716 878.283 353.812 878.385 355.269ZM874.267 356.159C874.235 355.7 874.031 355.364 873.655 355.149C873.279 354.935 872.642 354.859 871.745 354.922L866.358 355.3C866.172 355.514 866.038 355.744 865.955 355.99C865.894 356.255 865.871 356.507 865.888 356.747C865.928 357.325 866.207 357.727 866.724 357.951C867.243 358.195 868.1 358.276 869.297 358.192L871.093 358.066C872.29 357.982 873.128 357.783 873.607 357.468C874.088 357.174 874.308 356.738 874.267 356.159ZM869.272 346.254C870.15 346.193 870.786 345.968 871.18 345.579C871.592 345.169 871.774 344.615 871.725 343.917L871.699 343.558C871.65 342.859 871.394 342.346 870.93 342.018C870.484 341.668 869.823 341.524 868.945 341.586C868.067 341.647 867.422 341.883 867.009 342.293C866.616 342.681 866.443 343.225 866.492 343.923L866.517 344.282C866.566 344.98 866.814 345.504 867.259 345.854C867.723 346.182 868.394 346.316 869.272 346.254ZM880.523 353.976L879.421 338.265L883.85 337.954L884.089 341.366L884.239 341.355C884.288 340.911 884.398 340.482 884.57 340.069C884.74 339.636 884.973 339.249 885.27 338.907C885.587 338.564 885.968 338.287 886.415 338.075C886.86 337.843 887.391 337.706 888.01 337.662L888.788 337.608L889.077 341.738L887.97 341.815C886.673 341.906 885.718 342.144 885.103 342.528C884.508 342.91 884.243 343.56 884.307 344.478L884.952 353.665L880.523 353.976ZM904.074 352.324C903.276 352.38 902.59 352.178 902.016 351.717C901.462 351.254 901.086 350.609 900.888 349.781L900.708 349.794C900.54 350.828 900.066 351.643 899.286 352.239C898.504 352.815 897.515 353.145 896.318 353.229C894.742 353.34 893.505 353.005 892.609 352.226C891.712 351.447 891.215 350.369 891.119 348.993C891.003 347.337 891.515 346.068 892.656 345.186C893.816 344.282 895.433 343.758 897.508 343.612L899.992 343.438L899.923 342.451C899.869 341.692 899.628 341.108 899.198 340.697C898.767 340.266 898.083 340.084 897.145 340.149C896.267 340.211 895.582 340.449 895.09 340.865C894.598 341.28 894.199 341.739 893.893 342.242L891.096 340.092C891.669 339.11 892.416 338.326 893.337 337.74C894.277 337.133 895.575 336.771 897.231 336.655C899.465 336.498 901.175 336.869 902.361 337.769C903.547 338.668 904.206 340.055 904.337 341.93L904.82 348.814L906.286 348.711L906.528 352.152L904.074 352.324ZM897.748 350.031C898.486 349.98 899.103 349.776 899.599 349.42C900.116 349.063 900.349 348.526 900.298 347.807L900.168 345.952L898.013 346.103C896.278 346.225 895.451 346.874 895.534 348.051L895.565 348.5C895.606 349.079 895.815 349.495 896.194 349.749C896.571 349.983 897.089 350.077 897.748 350.031ZM909.75 351.926L908.648 336.215L913.077 335.904L913.264 338.568L913.443 338.555C913.664 337.698 914.093 336.956 914.731 336.33C915.367 335.684 916.274 335.319 917.451 335.237C918.528 335.161 919.465 335.366 920.261 335.852C921.057 336.337 921.661 337.087 922.073 338.1L922.162 338.094C922.271 337.645 922.452 337.222 922.705 336.823C922.976 336.403 923.311 336.039 923.711 335.73C924.11 335.421 924.564 335.169 925.071 334.973C925.577 334.757 926.13 334.628 926.728 334.586C928.244 334.48 929.439 334.937 930.313 335.959C931.207 336.979 931.723 338.486 931.863 340.481L932.554 350.327L928.125 350.638L927.459 341.151C927.319 339.156 926.531 338.209 925.095 338.309C924.436 338.356 923.851 338.587 923.339 339.004C922.827 339.421 922.598 340.018 922.653 340.796L923.366 350.971L918.937 351.282L918.272 341.795C918.132 339.8 917.344 338.853 915.907 338.954C915.588 338.976 915.272 339.048 914.96 339.171C914.666 339.271 914.397 339.431 914.152 339.648C913.926 339.865 913.744 340.128 913.605 340.438C913.485 340.728 913.439 341.062 913.465 341.441L914.179 351.616L909.75 351.926ZM936.74 350.033L935.638 334.322L940.067 334.011L940.254 336.675L940.434 336.662C940.654 335.805 941.083 335.063 941.721 334.437C942.357 333.791 943.264 333.426 944.441 333.344C945.519 333.268 946.455 333.473 947.251 333.959C948.047 334.444 948.651 335.194 949.063 336.207L949.153 336.201C949.262 335.752 949.442 335.329 949.695 334.93C949.966 334.51 950.302 334.146 950.701 333.837C951.101 333.528 951.554 333.276 952.062 333.08C952.568 332.864 953.12 332.735 953.719 332.693C955.235 332.587 956.43 333.044 957.303 334.066C958.197 335.086 958.714 336.593 958.854 338.588L959.544 348.434L955.115 348.745L954.45 339.258C954.31 337.263 953.522 336.316 952.085 336.417C951.427 336.463 950.841 336.694 950.329 337.111C949.817 337.528 949.588 338.125 949.643 338.903L950.357 349.078L945.927 349.389L945.262 339.902C945.122 337.907 944.334 336.96 942.898 337.061C942.578 337.083 942.263 337.156 941.95 337.278C941.657 337.378 941.387 337.538 941.142 337.755C940.916 337.972 940.734 338.235 940.596 338.546C940.476 338.835 940.429 339.169 940.456 339.548L941.169 349.723L936.74 350.033ZM970.309 348.04C969.112 348.124 968.032 348.009 967.067 347.696C966.102 347.363 965.265 346.87 964.558 346.218C963.869 345.544 963.319 344.711 962.909 343.717C962.518 342.722 962.279 341.596 962.191 340.339C962.104 339.102 962.185 337.974 962.435 336.954C962.682 335.914 963.09 335.013 963.659 334.252C964.247 333.489 964.986 332.885 965.877 332.442C966.767 331.979 967.801 331.706 968.978 331.623C970.275 331.532 971.397 331.674 972.346 332.048C973.314 332.422 974.114 332.957 974.744 333.655C975.394 334.351 975.883 335.179 976.211 336.138C976.558 337.076 976.768 338.074 976.842 339.131L976.935 340.448L966.849 341.155L966.866 341.395C966.939 342.432 967.276 343.24 967.878 343.82C968.479 344.379 969.378 344.617 970.575 344.533C971.493 344.469 972.228 344.236 972.781 343.837C973.333 343.417 973.841 342.93 974.303 342.377L976.711 344.975C976.07 345.842 975.197 346.544 974.092 347.083C973.007 347.62 971.746 347.939 970.309 348.04ZM969.296 334.879C968.398 334.942 967.711 335.291 967.234 335.925C966.776 336.539 966.581 337.335 966.65 338.312L966.667 338.552L972.173 338.165L972.154 337.896C972.087 336.938 971.814 336.186 971.334 335.638C970.873 335.069 970.194 334.816 969.296 334.879ZM980.784 346.945L979.682 331.233L984.111 330.923L984.351 334.334L984.5 334.324C984.549 333.879 984.66 333.45 984.831 333.037C985.001 332.604 985.235 332.217 985.532 331.876C985.848 331.532 986.23 331.255 986.676 331.043C987.121 330.812 987.653 330.674 988.271 330.631L989.049 330.576L989.339 334.706L988.232 334.784C986.935 334.875 985.979 335.112 985.365 335.496C984.77 335.879 984.505 336.529 984.569 337.446L985.213 346.634L980.784 346.945ZM998.485 346.064C996.969 346.17 995.675 346.021 994.604 345.614C993.532 345.188 992.555 344.555 991.674 343.715L994.093 340.899C994.695 341.478 995.348 341.923 996.051 342.235C996.755 342.546 997.535 342.672 998.393 342.612C999.271 342.55 999.87 342.378 1000.19 342.095C1000.51 341.792 1000.65 341.411 1000.62 340.952C1000.57 340.214 1000.01 339.812 998.944 339.746L997.224 339.657C993.661 339.465 991.782 337.973 991.587 335.18C991.533 334.422 991.625 333.724 991.861 333.086C992.115 332.426 992.486 331.859 992.974 331.384C993.481 330.887 994.095 330.493 994.816 330.202C995.556 329.889 996.395 329.7 997.333 329.634C998.151 329.577 998.873 329.587 999.5 329.663C1000.15 329.718 1000.72 329.838 1001.21 330.024C1001.72 330.189 1002.19 330.417 1002.61 330.708C1003.05 330.978 1003.48 331.288 1003.91 331.639L1001.55 334.421C1001.01 333.957 1000.42 333.608 999.76 333.374C999.121 333.118 998.472 333.013 997.813 333.059C997.055 333.112 996.525 333.27 996.223 333.532C995.92 333.793 995.783 334.124 995.811 334.523C995.84 334.942 995.973 335.263 996.209 335.487C996.464 335.69 996.914 335.819 997.56 335.874L999.342 335.989C1002.83 336.206 1004.66 337.661 1004.85 340.355C1004.9 341.113 1004.79 341.822 1004.52 342.483C1004.24 343.144 1003.83 343.735 1003.26 344.256C1002.71 344.755 1002.03 345.164 1001.21 345.482C1000.41 345.799 999.502 345.993 998.485 346.064ZM1024.49 344.24C1023.07 344.34 1021.78 344.21 1020.61 343.851C1019.44 343.472 1018.43 342.871 1017.57 342.049C1016.71 341.207 1016.01 340.143 1015.48 338.857C1014.95 337.552 1014.62 336.011 1014.49 334.235C1014.37 332.479 1014.48 330.908 1014.82 329.52C1015.17 328.113 1015.7 326.922 1016.44 325.949C1017.17 324.955 1018.09 324.179 1019.19 323.62C1020.3 323.062 1021.56 322.733 1022.97 322.633C1024.91 322.498 1026.53 322.785 1027.84 323.495C1029.16 324.185 1030.25 325.351 1031.13 326.994L1027.35 329.304C1027.01 328.445 1026.52 327.778 1025.89 327.301C1025.27 326.803 1024.39 326.594 1023.26 326.674C1021.92 326.767 1020.87 327.282 1020.12 328.217C1019.38 329.131 1019.07 330.416 1019.18 332.072L1019.42 335.423C1019.53 337.079 1020.02 338.318 1020.88 339.14C1021.76 339.941 1022.87 340.294 1024.2 340.2C1025.32 340.122 1026.19 339.76 1026.81 339.116C1027.44 338.45 1027.89 337.677 1028.15 336.796L1032.01 338.691C1031.34 340.341 1030.4 341.65 1029.19 342.618C1027.99 343.564 1026.42 344.105 1024.49 344.24ZM1047.14 342.291C1046.34 342.347 1045.65 342.145 1045.08 341.684C1044.53 341.221 1044.15 340.576 1043.95 339.748L1043.77 339.76C1043.6 340.795 1043.13 341.61 1042.35 342.206C1041.57 342.782 1040.58 343.112 1039.38 343.196C1037.81 343.306 1036.57 342.972 1035.67 342.193C1034.78 341.414 1034.28 340.336 1034.18 338.959C1034.07 337.303 1034.58 336.034 1035.72 335.152C1036.88 334.249 1038.5 333.725 1040.57 333.579L1043.06 333.405L1042.99 332.417C1042.93 331.659 1042.69 331.075 1042.26 330.664C1041.83 330.233 1041.15 330.05 1040.21 330.116C1039.33 330.178 1038.65 330.416 1038.15 330.831C1037.66 331.247 1037.26 331.706 1036.96 332.209L1034.16 330.059C1034.73 329.077 1035.48 328.292 1036.4 327.706C1037.34 327.099 1038.64 326.738 1040.3 326.621C1042.53 326.465 1044.24 326.836 1045.43 327.735C1046.61 328.634 1047.27 330.022 1047.4 331.897L1047.88 338.78L1049.35 338.677L1049.59 342.119L1047.14 342.291ZM1040.81 339.998C1041.55 339.946 1042.17 339.743 1042.66 339.387C1043.18 339.03 1043.41 338.492 1043.36 337.774L1043.23 335.919L1041.08 336.07C1039.34 336.192 1038.52 336.841 1038.6 338.018L1038.63 338.467C1038.67 339.046 1038.88 339.462 1039.26 339.716C1039.64 339.95 1040.15 340.044 1040.81 339.998ZM1052.81 341.893L1051.71 326.182L1056.14 325.871L1056.33 328.534L1056.51 328.522C1056.73 327.664 1057.16 326.922 1057.8 326.296C1058.43 325.65 1059.34 325.286 1060.52 325.203C1061.59 325.128 1062.53 325.333 1063.33 325.818C1064.12 326.304 1064.73 327.053 1065.14 328.067L1065.23 328.061C1065.34 327.612 1065.52 327.188 1065.77 326.79C1066.04 326.37 1066.38 326.005 1066.78 325.697C1067.17 325.388 1067.63 325.136 1068.14 324.94C1068.64 324.724 1069.19 324.595 1069.79 324.553C1071.31 324.446 1072.5 324.904 1073.38 325.925C1074.27 326.945 1074.79 328.453 1074.93 330.448L1075.62 340.294L1071.19 340.604L1070.52 331.118C1070.38 329.123 1069.6 328.175 1068.16 328.276C1067.5 328.322 1066.92 328.554 1066.4 328.971C1065.89 329.387 1065.66 329.985 1065.72 330.763L1066.43 340.938L1062 341.249L1061.34 331.762C1061.2 329.767 1060.41 328.82 1058.97 328.92C1058.65 328.943 1058.34 329.015 1058.02 329.137C1057.73 329.238 1057.46 329.397 1057.22 329.615C1056.99 329.831 1056.81 330.095 1056.67 330.405C1056.55 330.694 1056.5 331.028 1056.53 331.407L1057.24 341.582L1052.81 341.893ZM1078.7 324.289L1083.13 323.978L1083.32 326.612L1083.47 326.601C1083.62 325.708 1084.07 324.955 1084.81 324.341C1085.57 323.727 1086.46 323.384 1087.48 323.313C1089.47 323.173 1091.03 323.765 1092.14 325.09C1093.26 326.416 1093.91 328.415 1094.1 331.088C1094.28 333.762 1093.92 335.843 1093 337.33C1092.08 338.798 1090.62 339.602 1088.63 339.742C1088.11 339.779 1087.62 339.733 1087.15 339.606C1086.68 339.498 1086.24 339.328 1085.85 339.095C1085.47 338.841 1085.14 338.544 1084.85 338.203C1084.57 337.842 1084.35 337.456 1084.2 337.045L1084.05 337.056L1084.65 345.675L1080.22 345.985L1078.7 324.289ZM1086.91 336.254C1087.75 336.195 1088.42 335.858 1088.91 335.241C1089.43 334.603 1089.65 333.786 1089.58 332.788L1089.39 330.065C1089.32 329.067 1088.99 328.299 1088.39 327.76C1087.81 327.199 1087.1 326.948 1086.26 327.007C1085.42 327.065 1084.74 327.324 1084.21 327.782C1083.7 328.219 1083.47 328.796 1083.52 329.514L1083.85 334.153C1083.9 334.871 1084.21 335.421 1084.77 335.802C1085.36 336.162 1086.07 336.313 1086.91 336.254ZM1106.33 338.14L1106.08 334.519L1111.7 334.124L1110.72 320.118L1110.45 320.137L1106.59 326.002L1103.56 323.959L1108.1 317.024L1114.98 316.542L1116.19 333.809L1120.62 333.499L1120.88 337.12L1106.33 338.14ZM1130.83 336.782C1129.6 336.869 1128.48 336.757 1127.47 336.447C1126.47 336.116 1125.6 335.616 1124.87 334.945C1124.16 334.253 1123.59 333.411 1123.16 332.418C1122.75 331.425 1122.5 330.299 1122.41 329.042C1122.31 327.586 1122.43 326.194 1122.78 324.866C1123.15 323.517 1123.64 322.27 1124.26 321.124C1124.9 319.956 1125.63 318.902 1126.45 317.963C1127.28 317.022 1128.13 316.221 1128.99 315.56L1135.18 315.125C1133.97 316.132 1132.88 317.091 1131.92 318C1130.96 318.889 1130.13 319.78 1129.43 320.671C1128.75 321.56 1128.2 322.462 1127.76 323.375C1127.34 324.266 1127.07 325.217 1126.94 326.229L1127.21 326.3C1127.36 325.888 1127.55 325.485 1127.76 325.089C1127.99 324.691 1128.28 324.341 1128.62 324.036C1128.98 323.71 1129.4 323.44 1129.88 323.225C1130.37 323.011 1130.94 322.881 1131.6 322.834C1132.46 322.774 1133.27 322.878 1134.03 323.145C1134.81 323.391 1135.49 323.775 1136.06 324.296C1136.66 324.815 1137.14 325.473 1137.5 326.27C1137.87 327.046 1138.09 327.923 1138.16 328.9C1138.24 329.978 1138.12 330.979 1137.8 331.903C1137.5 332.826 1137.03 333.641 1136.38 334.348C1135.74 335.034 1134.96 335.591 1134.03 336.017C1133.1 336.443 1132.03 336.698 1130.83 336.782ZM1130.59 333.281C1131.59 333.211 1132.35 332.887 1132.87 332.309C1133.39 331.711 1133.61 330.904 1133.54 329.886L1133.5 329.347C1133.43 328.33 1133.1 327.571 1132.5 327.072C1131.9 326.552 1131.1 326.328 1130.11 326.398C1129.11 326.468 1128.35 326.802 1127.83 327.399C1127.31 327.977 1127.09 328.775 1127.16 329.792L1127.19 330.331C1127.27 331.349 1127.6 332.117 1128.2 332.636C1128.79 333.136 1129.59 333.351 1130.59 333.281Z" fill="white"/>
</g>
<mask id="path-3-outside-1_1232_637" maskUnits="userSpaceOnUse" x="654" y="10" width="164" height="276" fill="black">
<rect fill="white" x="654" y="10" width="164" height="276"/>
<path d="M706.18 151.344C713.862 151.344 720.698 150.628 726.688 149.195C732.677 147.763 735.672 145.615 735.672 142.75C735.672 140.927 735.086 139.43 733.914 138.258C725.971 141.122 717.312 142.555 707.938 142.555C695.177 142.555 684.435 138.193 675.711 129.469C666.987 120.615 662.625 107.919 662.625 91.3828C662.625 80.4453 664.904 69.8333 669.461 59.5469C685.867 57.5938 698.628 54.3385 707.742 49.7812C720.503 43.2708 731.44 32.7891 740.555 18.3359H775.516C786.714 18.3359 794.982 20.4193 800.32 24.5859C806.57 29.6641 809.695 38.5833 809.695 51.3438V258.766C803.055 264.885 795.307 269.573 786.453 272.828C777.729 275.953 768.745 277.516 759.5 277.516C744.266 277.516 731.896 273.87 722.391 266.578C711.583 258.375 706.18 246.396 706.18 230.641V151.344Z"/>
</mask>
<path d="M706.18 151.344C713.862 151.344 720.698 150.628 726.688 149.195C732.677 147.763 735.672 145.615 735.672 142.75C735.672 140.927 735.086 139.43 733.914 138.258C725.971 141.122 717.312 142.555 707.938 142.555C695.177 142.555 684.435 138.193 675.711 129.469C666.987 120.615 662.625 107.919 662.625 91.3828C662.625 80.4453 664.904 69.8333 669.461 59.5469C685.867 57.5938 698.628 54.3385 707.742 49.7812C720.503 43.2708 731.44 32.7891 740.555 18.3359H775.516C786.714 18.3359 794.982 20.4193 800.32 24.5859C806.57 29.6641 809.695 38.5833 809.695 51.3438V258.766C803.055 264.885 795.307 269.573 786.453 272.828C777.729 275.953 768.745 277.516 759.5 277.516C744.266 277.516 731.896 273.87 722.391 266.578C711.583 258.375 706.18 246.396 706.18 230.641V151.344Z" fill="#A5CE89"/>
<path d="M706.18 151.344V143.344H698.18V151.344H706.18ZM726.688 149.195L724.827 141.415L726.688 149.195ZM733.914 138.258L739.571 132.601L735.979 129.009L731.2 130.732L733.914 138.258ZM675.711 129.469L670.012 135.084L670.033 135.105L670.054 135.126L675.711 129.469ZM669.461 59.5469L668.515 51.603L663.992 52.1415L662.147 56.3064L669.461 59.5469ZM707.742 49.7812L711.32 56.9367L711.349 56.9221L711.378 56.9073L707.742 49.7812ZM740.555 18.3359V10.3359H736.142L733.788 14.0686L740.555 18.3359ZM800.32 24.5859L805.365 18.377L805.304 18.3276L805.242 18.2794L800.32 24.5859ZM809.695 258.766L815.117 264.648L817.695 262.272V258.766H809.695ZM786.453 272.828L789.151 280.36L789.182 280.348L789.214 280.337L786.453 272.828ZM722.391 266.578L727.26 260.231L727.244 260.218L727.227 260.206L722.391 266.578ZM706.18 159.344C714.342 159.344 721.821 158.585 728.548 156.976L724.827 141.415C719.575 142.671 713.382 143.344 706.18 143.344V159.344ZM728.548 156.976C731.965 156.159 735.369 154.961 738.089 153.01C741.016 150.91 743.672 147.482 743.672 142.75H727.672C727.672 141.992 727.891 141.25 728.243 140.661C728.558 140.134 728.845 139.95 728.763 140.009C728.675 140.072 728.352 140.278 727.656 140.555C726.973 140.828 726.045 141.123 724.827 141.415L728.548 156.976ZM743.672 142.75C743.672 139.038 742.4 135.43 739.571 132.601L728.257 143.915C728.087 143.745 727.904 143.486 727.782 143.175C727.667 142.879 727.672 142.704 727.672 142.75H743.672ZM731.2 130.732C724.218 133.25 716.489 134.555 707.938 134.555V150.555C718.136 150.555 727.724 148.995 736.628 145.783L731.2 130.732ZM707.938 134.555C697.218 134.555 688.535 130.979 681.368 123.812L670.054 135.126C680.335 145.406 693.137 150.555 707.938 150.555V134.555ZM681.41 123.854C674.596 116.939 670.625 106.534 670.625 91.3828H654.625C654.625 109.304 659.378 124.29 670.012 135.084L681.41 123.854ZM670.625 91.3828C670.625 81.5938 672.657 72.0833 676.775 62.7874L662.147 56.3064C657.151 67.5833 654.625 79.2968 654.625 91.3828H670.625ZM670.407 67.4908C687.233 65.4877 701.028 62.0828 711.32 56.9367L704.164 42.6258C696.228 46.5943 684.502 49.6998 668.515 51.603L670.407 67.4908ZM711.378 56.9073C725.648 49.6269 737.588 38.0376 747.321 22.6033L733.788 14.0686C725.292 27.5405 715.357 36.9148 704.106 42.6552L711.378 56.9073ZM740.555 26.3359H775.516V10.3359H740.555V26.3359ZM775.516 26.3359C785.999 26.3359 792.124 28.3372 795.398 30.8925L805.242 18.2794C797.839 12.5014 787.428 10.3359 775.516 10.3359V26.3359ZM795.276 30.7948C798.785 33.6464 801.695 39.5854 801.695 51.3438H817.695C817.695 37.5813 814.355 25.6817 805.365 18.377L795.276 30.7948ZM801.695 51.3438V258.766H817.695V51.3438H801.695ZM804.274 252.883C798.439 258.26 791.606 262.41 783.693 265.319L789.214 280.337C799.008 276.736 807.67 271.511 815.117 264.648L804.274 252.883ZM783.755 265.297C775.895 268.112 767.823 269.516 759.5 269.516V285.516C769.667 285.516 779.563 283.794 789.151 280.36L783.755 265.297ZM759.5 269.516C745.542 269.516 735.027 266.189 727.26 260.231L717.521 272.926C728.764 281.55 742.989 285.516 759.5 285.516V269.516ZM727.227 260.206C718.751 253.772 714.18 244.351 714.18 230.641H698.18C698.18 248.441 704.416 262.978 717.554 272.95L727.227 260.206ZM714.18 230.641V151.344H698.18V230.641H714.18Z" fill="white" mask="url(#path-3-outside-1_1232_637)"/>
<mask id="path-5-outside-2_1232_637" maskUnits="userSpaceOnUse" x="398" y="33" width="260" height="286" fill="black">
<rect fill="white" x="398" y="33" width="260" height="286"/>
<path d="M538.609 310.19C498.407 310.19 466.323 297.82 442.356 273.081C418.545 248.186 406.639 214.865 406.639 173.117C406.639 131.369 420.168 98.3573 447.227 74.0815C471.348 52.4344 501.5 41.6108 537.681 41.6108C569.843 41.6108 596.515 49.5739 617.698 65.5C638.882 81.2715 649.473 102.764 649.473 129.978C649.473 148.841 643.597 164.226 631.846 176.132C620.25 187.884 604.942 193.759 585.923 193.759C570.461 193.759 557.55 189.662 547.19 181.467C536.985 173.117 530.955 162.294 529.1 148.996C522.296 148.996 518.895 151.47 518.895 156.418C518.895 167.705 524.461 178.065 535.594 187.497C548.427 198.63 564.354 204.196 583.372 204.196C602.545 204.196 618.394 200.099 630.918 191.904C638.65 203.81 642.515 218.267 642.515 235.275C642.515 255.067 634.011 271.998 617.002 286.069C597.52 302.15 571.389 310.19 538.609 310.19Z"/>
</mask>
<path d="M538.609 310.19C498.407 310.19 466.323 297.82 442.356 273.081C418.545 248.186 406.639 214.865 406.639 173.117C406.639 131.369 420.168 98.3573 447.227 74.0815C471.348 52.4344 501.5 41.6108 537.681 41.6108C569.843 41.6108 596.515 49.5739 617.698 65.5C638.882 81.2715 649.473 102.764 649.473 129.978C649.473 148.841 643.597 164.226 631.846 176.132C620.25 187.884 604.942 193.759 585.923 193.759C570.461 193.759 557.55 189.662 547.19 181.467C536.985 173.117 530.955 162.294 529.1 148.996C522.296 148.996 518.895 151.47 518.895 156.418C518.895 167.705 524.461 178.065 535.594 187.497C548.427 198.63 564.354 204.196 583.372 204.196C602.545 204.196 618.394 200.099 630.918 191.904C638.65 203.81 642.515 218.267 642.515 235.275C642.515 255.067 634.011 271.998 617.002 286.069C597.52 302.15 571.389 310.19 538.609 310.19Z" fill="#87CEFA"/>
<path d="M442.356 273.081L436.575 278.61L436.593 278.629L436.611 278.647L442.356 273.081ZM447.227 74.0815L452.569 80.0364L452.57 80.0355L447.227 74.0815ZM617.698 65.5L612.891 71.8944L612.906 71.9056L612.921 71.9168L617.698 65.5ZM631.846 176.132L626.152 170.513L626.152 170.513L631.846 176.132ZM547.19 181.467L542.125 187.658L542.176 187.7L542.227 187.741L547.19 181.467ZM529.1 148.996L537.023 147.891L536.061 140.996H529.1V148.996ZM535.594 187.497L540.836 181.454L540.801 181.423L540.765 181.393L535.594 187.497ZM630.918 191.904L637.628 187.547L633.256 180.814L626.538 185.21L630.918 191.904ZM617.002 286.069L622.095 292.239L622.102 292.233L617.002 286.069ZM538.609 302.19C500.18 302.19 470.309 290.437 448.102 267.514L436.611 278.647C462.337 305.203 496.634 318.19 538.609 318.19V302.19ZM448.138 267.551C426.04 244.449 414.639 213.268 414.639 173.117H398.639C398.639 216.463 411.049 251.924 436.575 278.61L448.138 267.551ZM414.639 173.117C414.639 133.269 427.461 102.563 452.569 80.0364L441.885 68.1267C412.876 94.152 398.639 129.469 398.639 173.117H414.639ZM452.57 80.0355C475.049 59.8619 503.225 49.6108 537.681 49.6108V33.6108C499.774 33.6108 467.647 45.0069 441.884 68.1276L452.57 80.0355ZM537.681 49.6108C568.488 49.6108 593.369 57.2175 612.891 71.8944L622.506 59.1056C599.661 41.9303 571.197 33.6108 537.681 33.6108V49.6108ZM612.921 71.9168C632.005 86.1254 641.473 105.201 641.473 129.978H657.473C657.473 100.327 645.758 76.4176 622.476 59.0832L612.921 71.9168ZM641.473 129.978C641.473 147.03 636.233 160.3 626.152 170.513L637.54 181.752C650.962 168.153 657.473 150.653 657.473 129.978H641.473ZM626.152 170.513C616.29 180.507 603.155 185.759 585.923 185.759V201.759C606.729 201.759 624.209 195.26 637.54 181.752L626.152 170.513ZM585.923 185.759C571.942 185.759 560.868 182.086 552.154 175.193L542.227 187.741C554.232 197.238 568.98 201.759 585.923 201.759V185.759ZM552.256 175.275C543.641 168.226 538.606 159.234 537.023 147.891L521.176 150.102C523.305 165.353 530.33 178.008 542.125 187.658L552.256 175.275ZM529.1 140.996C524.966 140.996 520.421 141.705 516.74 144.382C512.587 147.403 510.895 151.898 510.895 156.418H526.895C526.895 156.092 526.95 156.188 526.805 156.504C526.64 156.864 526.376 157.158 526.151 157.321C525.974 157.45 526.017 157.357 526.52 157.235C527.028 157.112 527.858 156.996 529.1 156.996V140.996ZM510.895 156.418C510.895 170.707 518.059 183.126 530.422 193.601L540.765 181.393C530.863 173.004 526.895 164.704 526.895 156.418H510.895ZM530.352 193.54C544.816 206.088 562.674 212.196 583.372 212.196V196.196C566.033 196.196 552.039 191.172 540.836 181.454L530.352 193.54ZM583.372 212.196C603.668 212.196 621.151 207.855 635.299 198.598L626.538 185.21C615.637 192.343 601.423 196.196 583.372 196.196V212.196ZM624.209 196.261C630.943 206.632 634.515 219.503 634.515 235.275H650.515C650.515 217.031 646.356 200.988 637.628 187.547L624.209 196.261ZM634.515 235.275C634.515 252.389 627.314 267.156 611.903 279.905L622.102 292.233C640.708 276.84 650.515 257.745 650.515 235.275H634.515ZM611.91 279.899C594.241 294.483 570.091 302.19 538.609 302.19V318.19C572.686 318.19 600.799 309.816 622.095 292.239L611.91 279.899Z" fill="white" mask="url(#path-5-outside-2_1232_637)"/>
<mask id="path-7-outside-3_1232_637" maskUnits="userSpaceOnUse" x="210" y="18" width="224" height="289" fill="black">
<rect fill="white" x="210" y="18" width="224" height="289"/>
<path d="M323.173 134.123V158.659C324.027 159.514 325.431 159.941 327.384 159.941C329.337 159.941 330.741 159.27 331.596 157.927C332.45 156.584 332.877 154.265 332.877 150.969V132.292C332.877 120.573 332.389 112.822 331.413 109.038C330.436 105.131 328.605 103.178 325.919 103.178C324.21 103.178 322.746 103.789 321.525 105.009C322.624 117.094 323.173 126.799 323.173 134.123ZM264.762 55.2046C264.762 58.8667 266.898 60.6978 271.171 60.6978C278.495 49.2231 287.101 40.7393 296.989 35.2461C306.876 29.6309 318.778 26.8232 332.694 26.8232C346.61 26.8232 359.306 29.0205 370.78 33.415C386.527 39.6406 398.979 49.6504 408.134 63.4443C419.608 80.9004 425.346 103.789 425.346 132.109C425.346 163.969 416.801 188.75 399.711 206.45C382.743 224.028 359.184 232.817 329.032 232.817C312.187 232.817 299.064 230.742 289.665 226.591C288.81 227.08 288.383 228.117 288.383 229.704C288.383 233.366 291.19 235.991 296.806 237.578C302.543 239.165 312.37 240.324 326.286 241.057V289.763C313.712 295.378 299.918 298.186 284.904 298.186C267.204 298.186 253.837 294.951 244.804 288.481C234.55 281.523 229.423 270.842 229.423 256.438V109.038C222.221 98.9058 218.62 86.3325 218.62 71.3179C218.62 65.2144 219.596 58.5615 221.549 51.3594C223.502 44.1572 226.127 37.9927 229.423 32.8657H255.424C266.044 32.8657 274.162 34.3306 279.777 37.2603C269.767 44.7065 264.762 50.688 264.762 55.2046Z"/>
</mask>
<path d="M323.173 134.123V158.659C324.027 159.514 325.431 159.941 327.384 159.941C329.337 159.941 330.741 159.27 331.596 157.927C332.45 156.584 332.877 154.265 332.877 150.969V132.292C332.877 120.573 332.389 112.822 331.413 109.038C330.436 105.131 328.605 103.178 325.919 103.178C324.21 103.178 322.746 103.789 321.525 105.009C322.624 117.094 323.173 126.799 323.173 134.123ZM264.762 55.2046C264.762 58.8667 266.898 60.6978 271.171 60.6978C278.495 49.2231 287.101 40.7393 296.989 35.2461C306.876 29.6309 318.778 26.8232 332.694 26.8232C346.61 26.8232 359.306 29.0205 370.78 33.415C386.527 39.6406 398.979 49.6504 408.134 63.4443C419.608 80.9004 425.346 103.789 425.346 132.109C425.346 163.969 416.801 188.75 399.711 206.45C382.743 224.028 359.184 232.817 329.032 232.817C312.187 232.817 299.064 230.742 289.665 226.591C288.81 227.08 288.383 228.117 288.383 229.704C288.383 233.366 291.19 235.991 296.806 237.578C302.543 239.165 312.37 240.324 326.286 241.057V289.763C313.712 295.378 299.918 298.186 284.904 298.186C267.204 298.186 253.837 294.951 244.804 288.481C234.55 281.523 229.423 270.842 229.423 256.438V109.038C222.221 98.9058 218.62 86.3325 218.62 71.3179C218.62 65.2144 219.596 58.5615 221.549 51.3594C223.502 44.1572 226.127 37.9927 229.423 32.8657H255.424C266.044 32.8657 274.162 34.3306 279.777 37.2603C269.767 44.7065 264.762 50.688 264.762 55.2046Z" fill="#FFD700"/>
<path d="M323.173 158.659H315.173V161.973L317.516 164.316L323.173 158.659ZM331.413 109.038L323.651 110.978L323.659 111.007L323.666 111.037L331.413 109.038ZM321.525 105.009L315.868 99.3524L313.219 102.002L313.558 105.734L321.525 105.009ZM271.171 60.6978V68.6978H275.555L277.914 65.002L271.171 60.6978ZM296.989 35.2461L300.874 42.2394L300.907 42.2211L300.939 42.2026L296.989 35.2461ZM370.78 33.415L373.722 25.9754L373.682 25.9596L373.641 25.9442L370.78 33.415ZM408.134 63.4443L414.819 59.05L414.809 59.0351L414.799 59.0204L408.134 63.4443ZM399.711 206.45L393.956 200.893L393.955 200.894L399.711 206.45ZM289.665 226.591L292.896 219.273L289.202 217.642L285.695 219.645L289.665 226.591ZM296.806 237.578L294.63 245.276L294.651 245.282L294.673 245.288L296.806 237.578ZM326.286 241.057H334.286V233.467L326.706 233.068L326.286 241.057ZM326.286 289.763L329.548 297.067L334.286 294.951V289.763H326.286ZM244.804 288.481L249.462 281.977L249.38 281.918L249.296 281.861L244.804 288.481ZM229.423 109.038H237.423V106.484L235.943 104.403L229.423 109.038ZM229.423 32.8657V24.8657H225.055L222.693 28.5397L229.423 32.8657ZM279.777 37.2603L284.552 43.679L294.784 36.0669L283.477 30.1676L279.777 37.2603ZM315.173 134.123V158.659H331.173V134.123H315.173ZM317.516 164.316C320.57 167.37 324.562 167.941 327.384 167.941V151.941C326.953 151.941 326.94 151.889 327.196 151.967C327.483 152.055 328.149 152.322 328.83 153.002L317.516 164.316ZM327.384 167.941C331.358 167.941 335.675 166.417 338.345 162.222L324.846 153.632C325.204 153.07 325.769 152.546 326.45 152.22C327.065 151.926 327.463 151.941 327.384 151.941V167.941ZM338.345 162.222C340.514 158.813 340.877 154.469 340.877 150.969H324.877C324.877 152.306 324.788 153.196 324.689 153.731C324.581 154.322 324.522 154.141 324.846 153.632L338.345 162.222ZM340.877 150.969V132.292H324.877V150.969H340.877ZM340.877 132.292C340.877 120.75 340.432 111.97 339.159 107.039L323.666 111.037C324.347 113.673 324.877 120.397 324.877 132.292H340.877ZM339.174 107.097C338.509 104.437 337.344 101.52 335.143 99.1715C332.71 96.5761 329.466 95.1782 325.919 95.1782V111.178C325.599 111.178 325.125 111.115 324.598 110.887C324.071 110.659 323.696 110.355 323.471 110.115C323.264 109.894 323.235 109.785 323.305 109.931C323.376 110.079 323.508 110.405 323.651 110.978L339.174 107.097ZM325.919 95.1782C322.065 95.1782 318.572 96.6486 315.868 99.3524L327.182 110.666C327.119 110.729 326.93 110.89 326.616 111.021C326.3 111.152 326.039 111.178 325.919 111.178V95.1782ZM313.558 105.734C314.647 117.712 315.173 127.146 315.173 134.123H331.173C331.173 126.452 330.6 116.477 329.492 104.285L313.558 105.734ZM256.762 55.2046C256.762 58.6185 257.816 62.5336 261.158 65.3985C264.264 68.0611 268.077 68.6978 271.171 68.6978V52.6978C269.992 52.6978 270.601 52.4188 271.571 53.2504C272.084 53.6906 272.432 54.2279 272.619 54.7083C272.787 55.1403 272.762 55.3604 272.762 55.2046H256.762ZM277.914 65.002C284.668 54.4205 292.362 46.9683 300.874 42.2394L293.104 28.2528C281.84 34.5102 272.322 44.0258 264.428 56.3935L277.914 65.002ZM300.939 42.2026C309.381 37.4088 319.855 34.8232 332.694 34.8232V18.8232C317.701 18.8232 304.372 21.8529 293.038 28.2896L300.939 42.2026ZM332.694 34.8232C345.761 34.8232 357.471 36.8844 367.919 40.8859L373.641 25.9442C361.141 21.1566 347.46 18.8232 332.694 18.8232V34.8232ZM367.839 40.8547C382.103 46.4939 393.239 55.4693 401.468 67.8683L414.799 59.0204C404.718 43.8315 390.952 32.7874 373.722 25.9754L367.839 40.8547ZM401.449 67.8387C411.81 83.6014 417.346 104.81 417.346 132.109H433.346C433.346 102.767 427.407 78.1993 414.819 59.05L401.449 67.8387ZM417.346 132.109C417.346 162.531 409.218 185.086 393.956 200.893L405.466 212.006C424.384 192.413 433.346 165.408 433.346 132.109H417.346ZM393.955 200.894C378.834 216.559 357.555 224.817 329.032 224.817V240.817C360.812 240.817 386.652 231.497 405.467 212.006L393.955 200.894ZM329.032 224.817C312.676 224.817 300.83 222.776 292.896 219.273L286.433 233.91C297.298 238.707 311.697 240.817 329.032 240.817V224.817ZM285.695 219.645C281.073 222.287 280.383 227.103 280.383 229.704H296.383C296.383 229.555 296.413 230.022 296.101 230.782C295.737 231.666 294.964 232.777 293.634 233.537L285.695 219.645ZM280.383 229.704C280.383 233.871 282.093 237.522 285.025 240.263C287.72 242.783 291.176 244.3 294.63 245.276L298.981 229.879C297.951 229.588 297.21 229.294 296.698 229.037C296.185 228.781 295.982 228.603 295.952 228.575C295.939 228.563 296.081 228.697 296.214 228.994C296.35 229.299 296.383 229.568 296.383 229.704H280.383ZM294.673 245.288C301.331 247.13 311.933 248.312 325.865 249.046L326.706 233.068C312.807 232.336 303.755 231.199 298.938 229.867L294.673 245.288ZM318.286 241.057V289.763H334.286V241.057H318.286ZM323.023 282.458C311.566 287.575 298.897 290.186 284.904 290.186V306.186C300.94 306.186 315.858 303.181 329.548 297.067L323.023 282.458ZM284.904 290.186C267.96 290.186 256.546 287.051 249.462 281.977L240.145 294.985C251.128 302.851 266.447 306.186 284.904 306.186V290.186ZM249.296 281.861C241.618 276.651 237.423 268.688 237.423 256.438H221.423C221.423 272.995 227.481 286.394 240.312 295.101L249.296 281.861ZM237.423 256.438V109.038H221.423V256.438H237.423ZM235.943 104.403C229.889 95.8859 226.62 85.0235 226.62 71.3179H210.62C210.62 87.6415 214.552 101.926 222.902 113.673L235.943 104.403ZM226.62 71.3179C226.62 66.0579 227.463 60.1183 229.27 53.4532L213.828 49.2655C211.729 57.0047 210.62 64.3708 210.62 71.3179H226.62ZM229.27 53.4532C231.055 46.8711 233.386 41.4955 236.152 37.1918L222.693 28.5397C218.868 34.4898 215.949 41.4434 213.828 49.2655L229.27 53.4532ZM229.423 40.8657H255.424V24.8657H229.423V40.8657ZM255.424 40.8657C265.521 40.8657 272.13 42.2939 276.076 44.3529L283.477 30.1676C276.193 26.3672 266.567 24.8657 255.424 24.8657V40.8657ZM275.002 30.8415C269.756 34.7441 265.45 38.5286 262.38 42.1973C259.468 45.6775 256.762 50.1213 256.762 55.2046H272.762C272.762 55.7713 272.558 54.9661 274.651 52.4648C276.587 50.1521 279.788 47.2227 284.552 43.679L275.002 30.8415Z" fill="white" mask="url(#path-7-outside-3_1232_637)"/>
<mask id="path-9-outside-4_1232_637" maskUnits="userSpaceOnUse" x="-4" y="10" width="227" height="311" fill="black">
<rect fill="white" x="-4" y="10" width="227" height="311"/>
<path d="M214.893 205.585C214.893 236.493 205.078 261.615 185.449 280.951C164.648 301.752 135.938 312.152 99.3164 312.152C78.3691 312.152 58.5205 306.732 39.7705 295.893C25.415 287.689 14.502 278.241 7.03125 267.548C5.56641 258.612 4.83398 250.482 4.83398 243.158C4.83398 219.281 12.085 200.971 26.5869 188.227C38.3057 177.973 52.7344 172.846 69.873 172.846C82.9102 172.846 94.7754 176.288 105.469 183.173C116.309 190.497 124.292 200.604 129.419 213.495C134.106 213.495 136.45 211.078 136.45 206.244C136.45 203.754 135.352 200.458 133.154 196.356C131.104 192.255 128.101 188.153 124.146 184.052C113.745 173.358 101.221 166.767 86.5723 164.276V37.7139C93.8965 32.2939 103.125 27.7529 114.258 24.0908C125.391 20.4287 138.062 18.5977 152.271 18.5977C166.479 18.5977 179.297 21.0879 190.723 26.0684C206.836 33.3926 214.893 44.3789 214.893 59.0273V205.585Z"/>
</mask>
<path d="M214.893 205.585C214.893 236.493 205.078 261.615 185.449 280.951C164.648 301.752 135.938 312.152 99.3164 312.152C78.3691 312.152 58.5205 306.732 39.7705 295.893C25.415 287.689 14.502 278.241 7.03125 267.548C5.56641 258.612 4.83398 250.482 4.83398 243.158C4.83398 219.281 12.085 200.971 26.5869 188.227C38.3057 177.973 52.7344 172.846 69.873 172.846C82.9102 172.846 94.7754 176.288 105.469 183.173C116.309 190.497 124.292 200.604 129.419 213.495C134.106 213.495 136.45 211.078 136.45 206.244C136.45 203.754 135.352 200.458 133.154 196.356C131.104 192.255 128.101 188.153 124.146 184.052C113.745 173.358 101.221 166.767 86.5723 164.276V37.7139C93.8965 32.2939 103.125 27.7529 114.258 24.0908C125.391 20.4287 138.062 18.5977 152.271 18.5977C166.479 18.5977 179.297 21.0879 190.723 26.0684C206.836 33.3926 214.893 44.3789 214.893 59.0273V205.585Z" fill="#FF6961"/>
<path d="M185.449 280.951L179.835 275.252L179.814 275.273L179.792 275.294L185.449 280.951ZM39.7705 295.893L43.7745 288.967L43.7571 288.957L43.7396 288.947L39.7705 295.893ZM7.03125 267.548L-0.863371 268.842L-0.568987 270.638L0.473177 272.13L7.03125 267.548ZM26.5869 188.227L21.3189 182.206L21.3124 182.212L21.306 182.217L26.5869 188.227ZM105.469 183.173L109.948 176.544L109.874 176.494L109.799 176.446L105.469 183.173ZM129.419 213.495L121.985 216.452L123.991 221.495H129.419V213.495ZM133.154 196.356L125.999 199.934L126.049 200.035L126.102 200.134L133.154 196.356ZM124.146 184.052L129.904 178.499L129.892 178.486L129.88 178.474L124.146 184.052ZM86.5723 164.276H78.5723V171.031L85.2315 172.163L86.5723 164.276ZM86.5723 37.7139L81.8135 31.2831L78.5723 33.6817V37.7139H86.5723ZM190.723 26.0684L194.033 18.7854L193.976 18.7597L193.919 18.7348L190.723 26.0684ZM206.893 205.585C206.893 234.636 197.745 257.609 179.835 275.252L191.063 286.65C212.411 265.622 222.893 238.35 222.893 205.585H206.893ZM179.792 275.294C160.84 294.246 134.365 304.152 99.3164 304.152V320.152C137.51 320.152 168.457 309.258 191.106 286.608L179.792 275.294ZM99.3164 304.152C79.824 304.152 61.3506 299.128 43.7745 288.967L35.7665 302.818C55.6905 314.337 76.9143 320.152 99.3164 320.152V304.152ZM43.7396 288.947C30.1451 281.178 20.2264 272.466 13.5893 262.966L0.473177 272.13C8.77748 284.016 20.685 294.201 35.8014 302.839L43.7396 288.947ZM14.9259 266.254C13.5155 257.65 12.834 249.962 12.834 243.158H-3.16602C-3.16602 251.003 -2.38267 259.574 -0.863371 268.842L14.9259 266.254ZM12.834 243.158C12.834 220.992 19.4927 205.111 31.8678 194.236L21.306 182.217C4.67719 196.83 -3.16602 217.57 -3.16602 243.158H12.834ZM31.855 194.247C41.9647 185.401 54.4622 180.846 69.873 180.846V164.846C51.0066 164.846 34.6466 170.544 21.3189 182.206L31.855 194.247ZM69.873 180.846C81.415 180.846 91.7699 183.868 101.138 189.899L109.799 176.446C97.7809 168.708 84.4053 164.846 69.873 164.846V180.846ZM100.99 189.802C110.416 196.171 117.414 204.959 121.985 216.452L136.853 210.539C131.17 196.25 122.201 184.824 109.948 176.544L100.99 189.802ZM129.419 221.495C133.059 221.495 137.244 220.542 140.436 217.252C143.582 214.006 144.45 209.834 144.45 206.244H128.45C128.45 206.831 128.376 207.025 128.399 206.956C128.432 206.851 128.576 206.498 128.949 206.113C129.327 205.723 129.709 205.54 129.894 205.476C130.038 205.427 129.926 205.495 129.419 205.495V221.495ZM144.45 206.244C144.45 201.728 142.573 196.997 140.206 192.579L126.102 200.134C128.13 203.919 128.45 205.779 128.45 206.244H144.45ZM140.31 192.779C137.821 187.801 134.292 183.049 129.904 178.499L118.387 189.605C121.909 193.258 124.386 196.709 125.999 199.934L140.31 192.779ZM129.88 178.474C118.302 166.57 104.241 159.165 87.913 156.39L85.2315 172.163C98.2004 174.368 109.188 180.147 118.411 189.63L129.88 178.474ZM94.5723 164.276V37.7139H78.5723V164.276H94.5723ZM91.331 44.1446C97.8053 39.3536 106.215 35.158 116.758 31.6902L111.758 16.4914C100.035 20.3478 89.9877 25.2343 81.8135 31.2831L91.331 44.1446ZM116.758 31.6902C126.933 28.3429 138.737 26.5977 152.271 26.5977V10.5977C137.386 10.5977 123.848 12.5145 111.758 16.4914L116.758 31.6902ZM152.271 26.5977C165.533 26.5977 177.24 28.9185 187.526 33.4019L193.919 18.7348C181.353 13.2573 167.426 10.5977 152.271 10.5977V26.5977ZM187.412 33.3513C194.584 36.6112 199.389 40.4274 202.399 44.5322C205.344 48.5478 206.893 53.2691 206.893 59.0273H222.893C222.893 50.1371 220.413 42.0411 215.301 35.0704C210.255 28.1888 202.975 22.8498 194.033 18.7854L187.412 33.3513ZM206.893 59.0273V205.585H222.893V59.0273H206.893Z" fill="white" mask="url(#path-9-outside-4_1232_637)"/>
<mask id="path-11-outside-5_1232_637" maskUnits="userSpaceOnUse" x="813" y="44" width="239" height="279" fill="black">
<rect fill="white" x="813" y="44" width="239" height="279"/>
<path d="M934.969 210.219C930.021 210.219 926.115 211 923.25 212.562C923.25 216.99 924.487 220.57 926.961 223.305C929.565 226.039 933.016 227.406 937.312 227.406C943.953 227.406 947.273 224.737 947.273 219.398C947.273 213.279 943.172 210.219 934.969 210.219ZM1023.45 87.9531C1023.45 97.9792 1022.14 107.81 1019.54 117.445C1016.93 127.081 1013.09 135.089 1008.02 141.469C993.693 134.828 977.547 131.508 959.578 131.508C947.859 131.508 937.378 133.135 928.133 136.391C918.888 139.516 914.266 142.966 914.266 146.742C914.266 148.305 914.721 149.737 915.633 151.039C931.648 143.878 946.297 140.297 959.578 140.297C987.964 140.297 1009.45 148.565 1024.03 165.102C1036.92 179.945 1043.37 199.411 1043.37 223.5C1043.37 251.755 1032.62 274.346 1011.14 291.273C991.479 306.638 967.846 314.32 940.242 314.32C906.518 314.32 878.849 303.904 857.234 283.07C833.276 260.154 821.297 228.253 821.297 187.367C821.297 163.799 825.724 141.859 834.578 121.547C843.562 101.104 857.104 84.6979 875.203 72.3281C894.865 59.1771 918.172 52.6016 945.125 52.6016C979.76 52.6016 1005.8 60.6094 1023.25 76.625C1023.38 77.6667 1023.45 79.5547 1023.45 82.2891V87.9531Z"/>
</mask>
<path d="M934.969 210.219C930.021 210.219 926.115 211 923.25 212.562C923.25 216.99 924.487 220.57 926.961 223.305C929.565 226.039 933.016 227.406 937.312 227.406C943.953 227.406 947.273 224.737 947.273 219.398C947.273 213.279 943.172 210.219 934.969 210.219ZM1023.45 87.9531C1023.45 97.9792 1022.14 107.81 1019.54 117.445C1016.93 127.081 1013.09 135.089 1008.02 141.469C993.693 134.828 977.547 131.508 959.578 131.508C947.859 131.508 937.378 133.135 928.133 136.391C918.888 139.516 914.266 142.966 914.266 146.742C914.266 148.305 914.721 149.737 915.633 151.039C931.648 143.878 946.297 140.297 959.578 140.297C987.964 140.297 1009.45 148.565 1024.03 165.102C1036.92 179.945 1043.37 199.411 1043.37 223.5C1043.37 251.755 1032.62 274.346 1011.14 291.273C991.479 306.638 967.846 314.32 940.242 314.32C906.518 314.32 878.849 303.904 857.234 283.07C833.276 260.154 821.297 228.253 821.297 187.367C821.297 163.799 825.724 141.859 834.578 121.547C843.562 101.104 857.104 84.6979 875.203 72.3281C894.865 59.1771 918.172 52.6016 945.125 52.6016C979.76 52.6016 1005.8 60.6094 1023.25 76.625C1023.38 77.6667 1023.45 79.5547 1023.45 82.2891V87.9531Z" fill="#A5CE89"/>
<path d="M923.25 212.562L919.419 205.539L915.25 207.813V212.562H923.25ZM926.961 223.305L921.029 228.672L921.097 228.748L921.168 228.822L926.961 223.305ZM1019.54 117.445L1027.26 119.533L1019.54 117.445ZM1008.02 141.469L1004.65 148.727L1010.36 151.373L1014.28 146.451L1008.02 141.469ZM928.133 136.391L930.695 143.969L930.742 143.953L930.79 143.937L928.133 136.391ZM915.633 151.039L909.079 155.627L912.867 161.039L918.898 158.342L915.633 151.039ZM1024.03 165.102L1030.07 159.856L1030.05 159.833L1030.03 159.81L1024.03 165.102ZM1011.14 291.273L1016.07 297.577L1016.08 297.567L1016.09 297.557L1011.14 291.273ZM857.234 283.07L862.786 277.31L862.775 277.3L862.764 277.289L857.234 283.07ZM834.578 121.547L827.254 118.328L827.249 118.339L827.245 118.35L834.578 121.547ZM875.203 72.3281L870.755 65.6785L870.722 65.7008L870.689 65.7233L875.203 72.3281ZM1023.25 76.625L1031.19 75.6327L1030.82 72.7179L1028.66 70.7314L1023.25 76.625ZM934.969 202.219C929.316 202.219 923.912 203.089 919.419 205.539L927.081 219.586C928.317 218.911 930.725 218.219 934.969 218.219V202.219ZM915.25 212.562C915.25 218.554 916.967 224.183 921.029 228.672L932.893 217.937C932.007 216.958 931.25 215.425 931.25 212.562H915.25ZM921.168 228.822C925.496 233.367 931.157 235.406 937.312 235.406V219.406C934.874 219.406 933.634 218.712 932.754 217.787L921.168 228.822ZM937.312 235.406C941.494 235.406 946.113 234.6 949.796 231.639C953.812 228.41 955.273 223.82 955.273 219.398H939.273C939.273 219.918 939.192 220.005 939.261 219.838C939.351 219.622 939.536 219.358 939.771 219.169C939.969 219.01 939.992 219.073 939.6 219.178C939.191 219.288 938.463 219.406 937.312 219.406V235.406ZM955.273 219.398C955.273 214.371 953.464 209.446 948.981 206.101C944.938 203.085 939.833 202.219 934.969 202.219V218.219C936.548 218.219 937.668 218.369 938.421 218.556C938.789 218.647 939.04 218.741 939.198 218.812C939.277 218.847 939.331 218.876 939.365 218.895C939.382 218.905 939.394 218.913 939.402 218.918C939.41 218.923 939.413 218.926 939.414 218.926C939.414 218.926 939.41 218.924 939.405 218.919C939.399 218.914 939.39 218.906 939.38 218.897C939.36 218.877 939.335 218.851 939.309 218.818C939.253 218.748 939.217 218.684 939.2 218.646C939.166 218.569 939.273 218.754 939.273 219.398H955.273ZM1015.45 87.9531C1015.45 97.2775 1014.24 106.406 1011.82 115.358L1027.26 119.533C1030.05 109.214 1031.45 98.6809 1031.45 87.9531H1015.45ZM1011.82 115.358C1009.43 124.169 1006.02 131.13 1001.76 136.487L1014.28 146.451C1020.17 139.047 1024.43 129.992 1027.26 119.533L1011.82 115.358ZM1011.38 134.211C995.867 127.018 978.548 123.508 959.578 123.508V139.508C976.545 139.508 991.519 142.638 1004.65 148.727L1011.38 134.211ZM959.578 123.508C947.127 123.508 935.723 125.237 925.476 128.845L930.79 143.937C939.032 141.034 948.592 139.508 959.578 139.508V123.508ZM925.571 128.812C920.622 130.485 916.241 132.452 912.947 134.911C909.712 137.326 906.266 141.217 906.266 146.742H922.266C922.266 148.491 921.131 148.769 922.518 147.733C923.846 146.742 926.399 145.421 930.695 143.969L925.571 128.812ZM906.266 146.742C906.266 149.976 907.244 153.005 909.079 155.627L922.187 146.451C922.175 146.435 922.179 146.438 922.19 146.46C922.202 146.484 922.217 146.518 922.231 146.563C922.245 146.607 922.254 146.649 922.26 146.686C922.266 146.722 922.266 146.743 922.266 146.742H906.266ZM918.898 158.342C934.201 151.5 947.722 148.297 959.578 148.297V132.297C944.872 132.297 929.096 136.255 912.367 143.736L918.898 158.342ZM959.578 148.297C986.372 148.297 1005.38 156.044 1018.03 170.393L1030.03 159.81C1013.52 141.086 989.555 132.297 959.578 132.297V148.297ZM1017.99 170.347C1029.35 183.427 1035.37 200.887 1035.37 223.5H1051.37C1051.37 197.936 1044.49 176.464 1030.07 159.856L1017.99 170.347ZM1035.37 223.5C1035.37 249.398 1025.68 269.637 1006.19 284.99L1016.09 297.557C1039.57 279.056 1051.37 254.112 1051.37 223.5H1035.37ZM1006.21 284.97C988.11 299.118 966.262 306.32 940.242 306.32V322.32C969.431 322.32 994.848 314.158 1016.07 297.577L1006.21 284.97ZM940.242 306.32C908.312 306.32 882.721 296.525 862.786 277.31L851.683 288.83C874.977 311.282 904.725 322.32 940.242 322.32V306.32ZM862.764 277.289C840.738 256.22 829.297 226.613 829.297 187.367H813.297C813.297 229.892 825.814 264.087 851.705 288.851L862.764 277.289ZM829.297 187.367C829.297 164.828 833.525 143.984 841.912 124.744L827.245 118.35C817.923 139.734 813.297 162.771 813.297 187.367H829.297ZM841.902 124.766C850.296 105.665 862.877 90.4424 879.717 78.9329L870.689 65.7233C851.331 78.9534 836.829 96.5432 827.254 118.328L841.902 124.766ZM879.651 78.9777C897.819 66.8258 919.528 60.6016 945.125 60.6016V44.6016C916.816 44.6016 891.91 51.5284 870.755 65.6785L879.651 78.9777ZM945.125 60.6016C978.67 60.6016 1002.43 68.3692 1017.84 82.5186L1028.66 70.7314C1009.18 52.8495 980.851 44.6016 945.125 44.6016V60.6016ZM1015.31 77.6173C1015.37 78.1014 1015.45 79.5244 1015.45 82.2891H1031.45C1031.45 79.585 1031.39 77.232 1031.19 75.6327L1015.31 77.6173ZM1015.45 82.2891V87.9531H1031.45V82.2891H1015.45Z" fill="white" mask="url(#path-11-outside-5_1232_637)"/>
<defs>
<clipPath id="clip0_1232_637">
<rect x="684" y="323.65" width="481" height="70" rx="16" transform="rotate(-4.01166 684 323.65)" fill="white"/>
</clipPath>
</defs>
</svg>
